<svg width="439" height="307" viewBox="0 0 439 307" fill="none" xmlns="http://www.w3.org/2000/svg">
<g style="mix-blend-mode:multiply">
<path d="M155.799 299.285C155.799 303.083 120.878 303.487 77.8994 306.161C34.9605 308.832 0 303.083 0 299.285C0 295.488 35.1216 287.848 77.8994 292.41C120.878 296.994 155.799 295.488 155.799 299.285Z" fill="#E6E6E6"/>
</g>
<g style="mix-blend-mode:multiply">
<path d="M378.799 299.285C378.799 303.083 343.878 303.487 300.899 306.161C257.961 308.832 223 303.083 223 299.285C223 295.488 258.122 287.848 300.899 292.41C343.878 296.994 378.799 295.488 378.799 299.285Z" fill="#E6E6E6"/>
</g>
<path d="M383.762 120.3C375.902 115.773 372.91 114.652 372.91 114.647L372.75 114.533C371.892 113.875 371.21 113.014 370.766 112.027C370.766 111.846 370.766 111.665 370.766 111.51V111.562C370.895 109.164 372.595 106.989 374.212 105.087C375.59 103.465 376.968 101.844 378.346 100.225C378.821 99.7329 379.184 99.1442 379.411 98.499C379.495 98.1611 379.533 97.8135 379.524 97.4655C379.524 97.3208 379.524 97.1813 379.524 97.0418C379.524 95.8326 379.468 94.6235 379.426 93.4246C379.385 92.3653 379.116 91.0373 378.057 90.841C377.509 90.7273 376.786 90.9236 376.507 90.4534C376.405 90.2614 376.379 90.0383 376.434 89.8282C376.434 89.8282 376.434 89.8592 376.434 89.8747C376.432 89.8558 376.432 89.8367 376.434 89.8178C376.638 89.0025 376.77 88.1708 376.827 87.3324C376.846 86.907 376.788 86.4817 376.657 86.0767C376.042 84.3249 373.939 83.6067 372.078 83.276C370.218 82.9453 368.13 82.6611 366.963 81.2091C366.642 80.7248 366.297 80.2574 365.929 79.8087C365.388 79.3319 364.73 79.0073 364.022 78.8683C361.715 78.2965 359.282 78.5092 357.109 79.4728C356.209 79.8759 355.305 80.4133 354.318 80.3564C353.331 80.2996 352.417 79.5813 351.404 79.4108C349.771 79.1318 348.205 80.3358 347.399 81.7568C346.921 82.6002 346.667 83.5519 346.66 84.5213C346.66 84.573 346.66 84.6298 346.66 84.6815C346.64 85.7237 347.021 86.7339 347.725 87.5029C348.427 88.2366 349.476 88.7379 349.792 89.699C349.91 90.0917 349.885 90.5154 349.988 90.9081C349.988 90.9598 350.019 91.0063 350.034 91.058L349.978 91.1252C348.299 93.2854 347.39 95.9441 347.394 98.6798C347.41 101.336 348.27 103.918 349.849 106.054C351.427 108.19 353.644 109.77 356.178 110.565C356.178 110.684 356.178 110.808 356.178 110.937C356.213 111.712 356.079 112.486 355.785 113.205C355.49 113.923 355.043 114.569 354.473 115.096L343.322 119.571C343.322 119.571 336.605 118.776 334.186 128.588C333.799 130.217 333.659 131.894 333.773 133.564C333.861 135.048 333.654 137.652 331.933 141.021C329.179 146.416 329.804 158.791 335.437 160.016C340.754 161.174 342.836 160.693 343.053 160.636V160.853C342.966 163.178 342.123 183.207 339.059 185.656C338.206 186.323 338.367 186.778 339.059 187.083C339.059 187.083 339.059 187.212 339.059 187.444C338.966 188.912 338.491 194.487 336.439 197.665C334.083 201.329 334.352 222.515 334.352 222.515L332.729 235.015C332.729 235.015 333.726 242.735 332.729 244.083C331.835 245.287 330.662 273.853 330.393 280.043H330.29C329.799 280.073 329.323 280.222 328.904 280.478C328.484 280.733 328.133 281.088 327.882 281.51C326.549 283.65 321.95 287.592 321.95 287.592C320.953 289.013 317.253 290.372 315.3 291.013C315.038 291.097 314.786 291.206 314.545 291.339C313.814 291.737 313.226 292.355 312.866 293.106C312.739 293.327 312.658 293.571 312.628 293.824C312.597 294.078 312.619 294.334 312.69 294.579C313.207 295.803 323.578 296.646 326.203 295.436C328.27 294.475 336.455 293.204 339.855 292.708C340.472 292.63 341.045 292.35 341.485 291.91C341.925 291.47 342.206 290.896 342.283 290.279C342.316 290.067 342.305 289.849 342.252 289.641C342.199 289.432 342.104 289.236 341.973 289.065C341.322 288.259 340.986 286.058 340.837 284.621C341.113 284.508 341.37 284.355 341.601 284.167C341.322 279.713 341.961 275.249 343.477 271.052C345.978 264.438 346.733 252.181 346.107 244.213C346.107 244.213 353.739 211.364 359.749 208.3C359.842 208.413 362.756 212.155 363.128 223.74C363.501 235.506 367.753 243.226 367.753 243.226C367.753 243.226 365.878 263.203 367.753 270.68L365.288 282.456C365.186 282.372 365.087 282.282 364.994 282.187C364.994 282.187 365.066 282.518 365.17 283.04L365.118 283.288L365.221 283.314C365.5 284.787 365.914 287.355 365.738 288.864C365.64 289.727 365.402 290.9 365.221 292.057C364.963 293.871 364.891 295.633 365.847 296.015C367.397 296.646 376.61 297.509 378.176 295.498C378.527 295.087 378.755 294.585 378.836 294.049C378.916 293.514 378.845 292.967 378.63 292.47C378.517 292.193 378.364 291.934 378.176 291.701C378.176 291.701 375.732 287.706 376.424 284.89C376.487 284.615 376.494 284.331 376.443 284.053C376.393 283.776 376.286 283.512 376.13 283.278C376.488 278.82 377.205 274.397 378.274 270.055C379.824 264.159 383.142 251.23 380.713 242.724C380.62 242.394 380.517 242.063 380.403 241.743C379 237.101 378.531 232.227 379.023 227.403C378.119 223.286 378.119 219.021 379.023 214.904C380.511 208.047 381.56 201.329 381.56 201.329C381.56 201.329 382.387 192.26 381.664 186.7L381.617 186.344L382.01 186.256C382.01 186.256 379.886 176.82 379.132 170.816C378.956 169.395 378.724 167.602 378.47 165.685C379.163 165.566 379.845 165.393 380.511 165.168C387.27 162.837 389.394 141.755 389.394 141.755V135.068C389.394 135.068 391.647 124.852 383.762 120.3Z" fill="url(#paint0_linear)"/>
<path d="M380.683 241.661C383.613 250.089 380.167 263.767 378.616 269.875C377.572 274.291 376.881 278.784 376.549 283.31C372.984 283.912 369.336 283.827 365.801 283.062L368.385 270.484C366.556 263.033 368.385 243.123 368.385 243.123C368.385 243.123 364.251 235.424 363.869 223.699C363.507 212.161 360.665 208.43 360.572 208.311C354.666 211.38 347.235 244.105 347.235 244.105C347.845 252.042 347.111 264.258 344.652 270.857C343.169 275.045 342.545 279.49 342.817 283.925C341.964 284.643 340.776 284.767 339.494 284.56C336.007 283.997 331.826 280.99 331.826 280.99C331.826 280.99 333.17 245.335 334.146 243.981C335.123 242.627 334.146 234.944 334.146 234.944L335.733 222.485C335.733 222.485 335.49 201.356 337.8 197.682C339.805 194.514 340.264 188.954 340.357 187.497C340.357 187.265 340.357 187.135 340.357 187.135L343.892 182.903C343.892 182.903 378.095 180.32 380.658 182.903C381.288 183.534 381.691 184.97 381.908 186.768C382.611 192.308 381.805 201.346 381.805 201.346C381.805 201.346 380.771 208.063 379.314 214.899C378.432 219.005 378.432 223.252 379.314 227.358C378.837 232.169 379.302 237.028 380.683 241.661Z" fill="#65617D"/>
<path d="M378.544 295.221C377.02 297.236 368.044 296.383 366.515 295.737C365.579 295.35 365.652 293.598 365.905 291.789C366.065 290.637 366.298 289.464 366.391 288.611C366.639 286.41 365.662 281.951 365.662 281.951C365.662 281.951 367.677 284.09 368.163 281.951C368.275 281.543 368.497 281.173 368.804 280.882C369.111 280.59 369.491 280.388 369.904 280.297C370.951 279.981 372.077 280.05 373.077 280.494C374.664 281.181 377.309 282.648 376.834 284.627C376.162 287.433 378.544 291.412 378.544 291.412C378.729 291.646 378.879 291.905 378.989 292.182C379.203 292.68 379.275 293.228 379.196 293.764C379.118 294.301 378.892 294.805 378.544 295.221Z" fill="#A27772"/>
<path opacity="0.1" d="M378.544 295.22C377.02 297.236 368.044 296.383 366.514 295.737C365.579 295.35 365.652 293.598 365.905 291.789C366.866 292.239 368.488 292.616 371.237 292.363C371.876 292.301 372.518 292.28 373.16 292.301C375.103 292.392 377.05 292.354 378.988 292.187C379.202 292.685 379.273 293.231 379.195 293.767C379.116 294.302 378.891 294.805 378.544 295.22Z" fill="black"/>
<path opacity="0.1" d="M347.235 244.105C347.845 252.042 347.111 264.258 344.652 270.856C343.169 275.045 342.545 279.49 342.817 283.925C341.965 284.643 340.776 284.767 339.495 284.56C340.234 279.393 343.37 257.21 345.385 239.677C347.675 219.705 358.392 205.965 358.392 205.965L360.531 208.316C354.666 211.38 347.235 244.105 347.235 244.105Z" fill="black"/>
<path d="M374.88 115.733L373.387 123.06L366.085 135.338L357.079 131.488C357.079 131.488 344.832 118.663 352.526 116.834C353.449 116.637 354.32 116.249 355.084 115.697C356.593 114.555 357.068 112.901 357.079 111.279C357.018 109.461 356.593 107.674 355.828 106.024L371.583 101.078C370.932 103.148 370.551 105.293 370.452 107.46C370.333 111.749 371.925 113.868 373.232 114.875C373.718 115.268 374.279 115.56 374.88 115.733Z" fill="#FBBEBE"/>
<path opacity="0.1" d="M371.584 101.078C370.932 103.148 370.552 105.293 370.452 107.46C368.856 109.355 366.731 110.73 364.348 111.41C361.966 112.09 359.435 112.045 357.079 111.279C357.018 109.461 356.593 107.674 355.829 106.024L371.584 101.078Z" fill="black"/>
<path d="M373.387 99.0632C373.387 101.527 372.656 103.936 371.287 105.985C369.919 108.034 367.973 109.63 365.696 110.573C363.42 111.516 360.915 111.763 358.498 111.282C356.081 110.802 353.862 109.615 352.119 107.873C350.377 106.13 349.19 103.91 348.71 101.494C348.229 99.077 348.476 96.5721 349.419 94.2956C350.362 92.0191 351.958 90.0734 354.007 88.7044C356.056 87.3354 358.465 86.6048 360.929 86.6048C362.566 86.6007 364.188 86.9201 365.701 87.5448C367.215 88.1694 368.59 89.087 369.747 90.2446C370.905 91.4023 371.822 92.7774 372.447 94.2907C373.072 95.8041 373.391 97.426 373.387 99.0632Z" fill="#FBBEBE"/>
<path opacity="0.1" d="M374.88 115.733L373.387 123.06L366.085 135.338L357.079 131.488C357.079 131.488 344.832 118.663 352.526 116.834C353.449 116.637 354.32 116.25 355.084 115.697C353.694 119.516 359.43 127.458 359.43 127.458C360.096 128.44 361.631 127.825 361.631 127.825C365.321 127.267 372.126 116.643 373.232 114.875C373.718 115.269 374.279 115.56 374.88 115.733Z" fill="black"/>
<path opacity="0.1" d="M381.934 186.779C379.763 187.296 367.765 189.926 363.218 189.264C358.21 188.531 348.47 188.045 348.47 188.045C348.47 188.045 342.269 188.376 340.368 187.528C340.368 187.296 340.368 187.166 340.368 187.166L343.902 182.934C343.902 182.934 378.105 180.351 380.668 182.934C381.339 183.544 381.701 184.975 381.934 186.779Z" fill="black"/>
<path d="M359.43 127.825C359.43 127.825 352.986 118.901 355.415 115.423L344.528 119.888C344.528 119.888 337.975 119.092 335.614 128.868C335.235 130.495 335.098 132.168 335.206 133.834C335.294 135.307 335.092 137.901 333.413 141.26C330.726 146.634 331.346 158.973 336.833 160.193C342.321 161.412 344.285 160.803 344.285 160.803C344.285 160.803 343.551 183.157 340.378 185.72C337.205 188.283 348.475 187.673 348.475 187.673C348.475 187.673 358.211 188.189 363.218 188.897C368.225 189.605 382.27 186.314 382.27 186.314C382.27 186.314 380.203 176.909 379.459 170.925C378.715 164.942 377.02 152.199 377.02 152.199L389.478 135.322C389.478 135.322 391.674 125.122 383.98 120.606C376.286 116.09 373.387 114.974 373.387 114.974C373.387 114.974 365.636 127.566 361.626 128.176C361.626 128.186 360.097 128.806 359.43 127.825Z" fill="#2D3AAA"/>
<path opacity="0.1" d="M345.138 131.37C345.138 131.37 345.019 135.4 345.752 136.986C346.486 138.573 349.168 147.368 349.168 147.368H343.065C343.065 147.368 346.362 143.828 346.119 142.118C345.876 140.407 345.138 131.37 345.138 131.37Z" fill="black"/>
<path d="M363.218 161.774C363.218 161.774 349.731 158.477 348.475 155.671C347.22 152.866 343.752 146.572 343.752 146.572L345.173 144.655L351.736 149.822C351.736 149.822 359.554 156.023 363.218 156.664C366.881 157.304 363.218 161.774 363.218 161.774Z" fill="#FBBEBE"/>
<path opacity="0.05" d="M363.218 161.774C363.218 161.774 349.731 158.477 348.475 155.671C347.22 152.866 343.752 146.572 343.752 146.572L345.173 144.655L351.736 149.822C351.736 149.822 359.554 156.023 363.218 156.664C366.881 157.304 363.218 161.774 363.218 161.774Z" fill="black"/>
<path d="M374.88 145.905V153.222H373.702C367.891 153.222 362.176 154.702 357.094 157.521L354.893 158.741L354.299 159.071L350.511 150.545L354.056 147.367H354.237C355.105 147.45 358.851 147.76 360.438 147.228C362.024 146.696 363.822 145.089 368.261 146.225C370.452 146.784 372.317 149.238 374.462 148.473L374.88 145.905Z" fill="#FBBEBE"/>
<path opacity="0.1" d="M386.667 132.589L389.111 135.338V141.993C389.111 141.993 387.045 163.004 380.441 165.324C373.837 167.644 362.071 163.98 362.071 163.98C362.071 163.98 359.027 155.919 360.448 155.429C361.869 154.938 373.026 151.997 373.026 151.997C373.026 151.997 372.865 139.673 375.31 136.01C375.31 136.01 373.723 124.528 379.216 124.285C384.709 124.042 386.667 132.589 386.667 132.589Z" fill="black"/>
<path d="M387.023 132.589L389.467 135.338V141.993C389.467 141.993 387.401 163.004 380.791 165.324C374.182 167.644 362.427 163.98 362.427 163.98C362.427 163.98 359.383 155.919 360.804 155.429C362.225 154.938 373.376 151.997 373.376 151.997C373.376 151.997 373.221 139.673 375.665 136.01C375.665 136.01 374.074 124.528 379.572 124.285C385.07 124.042 387.023 132.589 387.023 132.589Z" fill="#2D3AAA"/>
<path opacity="0.1" d="M369.971 104.355C370.08 103.551 369.984 102.734 369.692 101.978C369.539 101.604 369.266 101.292 368.917 101.09C368.567 100.888 368.16 100.807 367.76 100.861C366.726 101.104 366.261 102.463 365.238 102.789C364.375 103.063 363.43 102.453 363.016 101.647C362.67 100.807 362.525 99.8972 362.592 98.9909C362.592 97.9575 362.592 96.9498 362.592 95.9267C362.592 94.8157 362.556 93.6169 361.869 92.7436C361.016 91.6585 359.017 91.1934 357.683 91.2296C356.794 91.2388 355.94 91.5818 355.291 92.1907C354.965 92.5187 354.57 92.7697 354.135 92.9253C353.699 93.0809 353.234 93.1371 352.774 93.0898C352.369 93.0275 351.989 92.8519 351.679 92.5831C351.369 92.3143 351.142 91.9633 351.023 91.5706C351.02 91.557 351.02 91.543 351.023 91.5293C352.061 90.1567 353.372 89.014 354.874 88.1734C356.376 87.3328 358.036 86.8125 359.748 86.6453C361.461 86.478 363.19 86.6675 364.826 87.2017C366.462 87.7359 367.97 88.6033 369.254 89.7492C370.538 90.8951 371.571 92.2946 372.287 93.8595C373.003 95.4244 373.388 97.1207 373.416 98.8415C373.444 100.562 373.115 102.27 372.45 103.858C371.785 105.445 370.799 106.878 369.553 108.065C369.759 106.837 369.899 105.598 369.971 104.355Z" fill="black"/>
<path d="M352.769 92.7229C352.363 92.6598 351.984 92.4839 351.673 92.2153C351.362 91.9467 351.133 91.5962 351.012 91.2037C350.914 90.811 350.94 90.3873 350.821 89.9997C350.537 89.0386 349.514 88.5374 348.827 87.8088C347.452 86.3516 347.54 83.9488 348.511 82.1919C349.302 80.776 350.826 79.5824 352.423 79.8563C353.41 80.0319 354.263 80.7347 355.265 80.7967C356.267 80.8587 357.11 80.3213 357.988 79.9183C360.105 78.9595 362.484 78.7481 364.737 79.3189C365.43 79.4566 366.073 79.7798 366.597 80.2541C366.953 80.7009 367.284 81.1667 367.589 81.6493C368.726 83.1013 370.767 83.3855 372.581 83.7163C374.395 84.047 376.451 84.7497 377.045 86.5118C377.443 87.6693 377.045 88.9249 376.833 90.1289C376.755 90.3757 376.771 90.6431 376.88 90.8782C377.164 91.3484 377.872 91.1521 378.43 91.2606C379.464 91.4776 379.722 92.8108 379.758 93.8442C379.806 95.0431 379.839 96.2488 379.856 97.4614C379.887 97.9101 379.852 98.3609 379.753 98.7997C379.53 99.4258 379.178 99.998 378.72 100.479L374.684 105.326C372.896 107.476 371 109.977 371.356 112.752C370.509 113.129 369.506 112.4 369.227 111.511C368.948 110.623 369.17 109.672 369.362 108.762C369.687 107.19 369.899 105.596 369.997 103.993C370.106 103.188 370.01 102.369 369.718 101.611C369.564 101.237 369.29 100.924 368.94 100.722C368.589 100.52 368.181 100.44 367.78 100.495C366.747 100.737 366.287 102.096 365.264 102.422C364.401 102.701 363.455 102.086 363.042 101.28C362.698 100.439 362.553 99.5302 362.618 98.624V95.5598C362.618 94.4488 362.582 93.25 361.895 92.3767C361.047 91.2916 359.042 90.8265 357.709 90.8627C356.819 90.8719 355.966 91.2149 355.317 91.8238C354.987 92.1562 354.587 92.4097 354.146 92.5654C353.705 92.7211 353.234 92.775 352.769 92.7229Z" fill="#7C5C5C"/>
<path opacity="0.1" d="M355.581 131.065L359.41 146.773C359.41 146.773 362.422 146.758 355.581 131.065Z" fill="black"/>
<path opacity="0.1" d="M368.654 128.434C368.654 128.434 363.642 136.64 365.6 145.12L366.53 145.187C366.53 145.187 364.866 141.26 368.654 128.434Z" fill="black"/>
<path opacity="0.1" d="M371.827 174.853C371.827 174.853 377.976 172.817 378.425 177.54C378.425 177.54 377.263 174.3 371.827 174.853Z" fill="black"/>
<path opacity="0.1" d="M354.056 147.734C354.056 147.734 352.836 156.286 355.033 159.707C351.587 160.921 347.929 161.419 344.285 161.169L343.551 147.734H354.056Z" fill="black"/>
<path opacity="0.1" d="M354.893 158.741L354.299 159.071L350.511 150.545L354.056 147.367H354.237C354.18 147.781 353.193 155.124 354.893 158.741Z" fill="black"/>
<path d="M354.056 147.367C354.056 147.367 352.837 155.919 355.033 159.34C351.587 160.554 347.93 161.052 344.285 160.803L340.011 147.367H354.056Z" fill="#2D3AAA"/>
<path d="M343.489 290.022C343.419 290.632 343.147 291.2 342.718 291.638C342.288 292.076 341.725 292.358 341.117 292.441C337.805 292.957 329.811 294.197 327.796 295.159C325.212 296.383 315.094 295.525 314.604 294.306C314.535 294.061 314.515 293.805 314.545 293.552C314.575 293.299 314.655 293.055 314.779 292.833C315.016 292.347 315.347 291.914 315.755 291.558C316.162 291.203 316.637 290.934 317.151 290.766C319.063 290.126 322.67 288.777 323.641 287.361C323.641 287.361 328.137 283.424 329.418 281.3C329.659 280.881 330 280.528 330.41 280.273C330.82 280.018 331.287 279.868 331.769 279.837C332.839 279.786 334.028 280.328 334.518 282.669C334.518 282.669 340.378 286.012 341.965 283.082C341.965 283.082 342.207 287.583 343.179 288.818C343.307 288.989 343.401 289.183 343.454 289.389C343.507 289.596 343.519 289.811 343.489 290.022Z" fill="#A27772"/>
<path opacity="0.1" d="M343.489 290.022C343.419 290.632 343.147 291.2 342.718 291.638C342.288 292.076 341.725 292.358 341.117 292.441C337.805 292.957 329.811 294.197 327.796 295.159C325.212 296.383 315.094 295.525 314.604 294.306C314.535 294.061 314.515 293.805 314.545 293.552C314.575 293.299 314.655 293.055 314.779 292.833C315.127 292.09 315.7 291.476 316.417 291.076C318.071 292.172 321.74 293.247 329.811 291.986C337.51 290.782 341.319 289.604 343.179 288.803C343.309 288.975 343.404 289.172 343.457 289.381C343.511 289.591 343.521 289.809 343.489 290.022Z" fill="black"/>
<g opacity="0.1">
<path opacity="0.1" d="M376.818 90.2944C376.82 90.2738 376.82 90.2529 376.818 90.2323C377.06 89.3286 377.186 88.3981 377.195 87.4626C377.117 88.2106 376.991 88.9528 376.818 89.6846C376.772 89.8852 376.772 90.0937 376.818 90.2944Z" fill="black"/>
<path opacity="0.1" d="M369.692 101.724C369.884 102.165 369.986 102.639 369.992 103.12C370.048 102.457 369.945 101.791 369.692 101.177C369.538 100.802 369.265 100.489 368.914 100.286C368.564 100.083 368.156 100.002 367.755 100.055C366.721 100.298 366.261 101.662 365.238 101.988C364.375 102.262 363.43 101.647 363.016 100.841C362.668 100.001 362.523 99.0911 362.592 98.1848C362.592 97.1513 362.592 96.1437 362.592 95.1257C362.592 94.0147 362.556 92.8159 361.869 91.9426C361.016 90.8523 359.017 90.3924 357.678 90.4234C356.789 90.4333 355.937 90.7784 355.291 91.3897C354.965 91.7168 354.569 91.9669 354.134 92.1215C353.699 92.2762 353.234 92.3316 352.775 92.2837C352.368 92.2235 351.986 92.0486 351.675 91.7796C351.364 91.5105 351.136 91.1584 351.018 90.7645C350.914 90.3717 350.945 89.9532 350.826 89.5605C350.542 88.5993 349.519 88.1033 348.832 87.3747C348.191 86.6639 347.824 85.7478 347.798 84.791C347.749 85.3558 347.816 85.9246 347.993 86.4629C348.171 87.0012 348.456 87.4978 348.832 87.9224C349.519 88.651 350.542 89.1523 350.826 90.1134C350.945 90.5009 350.914 90.9246 351.018 91.3174C351.138 91.7101 351.367 92.0609 351.678 92.3296C351.988 92.5983 352.369 92.774 352.775 92.8366C353.235 92.8838 353.699 92.8276 354.135 92.672C354.57 92.5165 354.965 92.2655 355.291 91.9375C355.94 91.3354 356.788 90.9948 357.673 90.9815C359.012 90.9402 361.011 91.4155 361.864 92.5007C362.551 93.374 362.582 94.5676 362.587 95.6838C362.587 96.7172 362.587 97.7249 362.587 98.7428C362.517 99.6509 362.662 100.563 363.011 101.404C363.424 102.21 364.37 102.82 365.233 102.546C366.266 102.22 366.706 100.861 367.749 100.613C368.15 100.56 368.558 100.64 368.909 100.841C369.26 101.041 369.535 101.352 369.692 101.724Z" fill="black"/>
<path opacity="0.1" d="M379.733 98.3604C379.509 98.9875 379.157 99.5611 378.699 100.045C377.349 101.657 376.004 103.271 374.663 104.887C372.969 106.928 371.17 109.289 371.3 111.894C371.424 109.506 373.087 107.336 374.663 105.44L378.699 100.593C379.157 100.111 379.508 99.5388 379.733 98.9133C379.832 98.4729 379.867 98.0203 379.836 97.5698C379.833 97.8365 379.798 98.1019 379.733 98.3604Z" fill="black"/>
<path opacity="0.1" d="M369.202 111.077C369.135 110.864 369.094 110.644 369.078 110.421C369.044 110.827 369.086 111.235 369.202 111.625C369.476 112.514 370.483 113.242 371.331 112.865C371.331 112.684 371.295 112.503 371.289 112.348C370.452 112.684 369.455 111.945 369.202 111.077Z" fill="black"/>
</g>
<path opacity="0.1" d="M328.633 282.39C328.633 282.39 329.909 284.633 334.539 282.654L328.633 282.39Z" fill="black"/>
<path opacity="0.1" d="M367.724 282.927C367.724 282.927 371.718 287.625 376.746 284.478L367.724 282.927Z" fill="black"/>
<path opacity="0.1" d="M379.34 227.368C379.34 227.368 376.518 229.13 376.425 230.138C376.332 231.145 377.883 229.404 377.883 229.404L379.34 227.368Z" fill="black"/>
<path opacity="0.1" d="M380.451 240.876C379.472 241.693 378.252 242.168 376.978 242.229C374.87 242.322 375.046 245.071 376.426 244.245C377.805 243.418 380.451 240.876 380.451 240.876Z" fill="black"/>
<path opacity="0.1" d="M380.988 242.638C380.988 242.638 379.634 249.283 378.534 248.001L380.988 242.638Z" fill="black"/>
<path d="M275.494 24L217.354 88.8802C220.48 91.305 223.073 94.3474 224.972 97.8179C226.871 101.288 228.035 105.112 228.391 109.052C228.747 112.992 228.288 116.963 227.043 120.718C225.798 124.472 223.793 127.93 221.152 130.877C218.512 133.823 215.294 136.194 211.697 137.842C208.101 139.491 204.203 140.381 200.247 140.458C196.292 140.535 192.363 139.797 188.705 138.289C185.047 136.782 181.738 134.538 178.986 131.696L98 222.071C121.35 240.215 150.09 250.044 179.662 250C253.303 250 313 190.312 313 116.684C313.044 82.0851 299.589 48.8336 275.494 24Z" fill="#F2F2F2"/>
<path d="M199.692 134.383C211.672 134.383 221.383 124.672 221.383 112.692C221.383 100.712 211.672 91 199.692 91C187.712 91 178 100.712 178 112.692C178 124.672 187.712 134.383 199.692 134.383Z" fill="#F2F2F2"/>
<path d="M280 147H83V297H280V147Z" fill="#1C2468"/>
<path d="M303.186 73.4098C303.186 73.4098 287.91 72.7905 287.497 88.4788C287.085 104.167 287.497 117.585 287.497 117.585H318.048V89.3045C318.048 89.3045 317.429 74.4419 303.186 73.4098Z" fill="#2F2E41"/>
<path d="M297.223 101.369C297.223 101.369 298.13 111.647 295.107 112.554C292.084 113.461 296.316 126.459 296.316 126.459L308.408 129.18L315.361 115.274L312.338 111.344C312.338 111.344 307.199 104.392 309.617 99.555C312.036 94.7182 297.223 101.369 297.223 101.369Z" fill="#FFB9B9"/>
<path opacity="0.1" d="M297.223 101.369C297.223 101.369 298.13 111.647 295.107 112.554C292.084 113.461 296.316 126.459 296.316 126.459L308.408 129.18L315.361 115.274L312.338 111.344C312.338 111.344 307.199 104.392 309.617 99.555C312.036 94.7182 297.223 101.369 297.223 101.369Z" fill="black"/>
<path d="M301.455 106.205C307.967 106.205 313.245 100.927 313.245 94.4159C313.245 87.9048 307.967 82.6265 301.455 82.6265C294.944 82.6265 289.666 87.9048 289.666 94.4159C289.666 100.927 294.944 106.205 301.455 106.205Z" fill="#FFB9B9"/>
<path d="M255.506 134.923C255.506 134.923 248.251 140.365 250.367 144.597C252.483 148.829 258.832 163.339 258.832 163.339C258.832 163.339 260.041 174.524 265.18 173.919C270.319 173.315 265.18 162.13 265.18 162.13L258.832 144.899L260.948 141.574L255.506 134.923Z" fill="#FFB9B9"/>
<path d="M353.45 136.737C353.45 136.737 361.612 143.085 356.775 145.504C351.938 147.922 331.382 159.409 331.382 159.409C331.382 159.409 318.988 168.78 317.477 161.525C315.965 154.27 325.639 154.573 325.639 154.573C325.639 154.573 344.986 142.783 345.892 140.365C346.799 137.946 353.45 136.737 353.45 136.737Z" fill="#FFB9B9"/>
<path d="M281.504 178.151C281.504 178.151 277.574 199.614 279.69 211.706C280.936 219.233 280.731 226.929 279.086 234.378L290.875 235.587C290.875 235.587 298.432 190.848 302.665 191.15C306.897 191.452 315.965 236.192 315.965 236.192L328.662 234.378C328.662 234.378 324.732 214.427 326.546 208.381C328.36 202.335 327.15 180.57 322.616 178.151C318.082 175.733 281.504 178.151 281.504 178.151Z" fill="#575A89"/>
<path d="M292.084 234.378C292.084 234.378 278.481 229.844 277.272 233.169C276.063 236.494 276.365 273.677 276.667 276.095C276.969 278.513 277.876 277.304 276.969 278.513C276.063 279.722 276.063 277.002 276.365 280.327C276.667 283.652 276.969 284.257 276.969 284.257C276.969 284.257 271.528 296.953 281.202 296.651C290.875 296.349 286.341 287.28 286.341 287.28C286.341 287.28 287.852 284.559 286.945 283.048C286.038 281.536 285.736 279.118 286.945 277.909C288.154 276.699 285.736 274.281 285.434 273.374C285.131 272.467 284.224 272.77 286.643 269.747C289.061 266.724 287.852 265.212 287.55 264.305C287.247 263.399 289.666 257.957 289.666 257.957L292.084 234.378Z" fill="#2F2E41"/>
<path d="M315.059 234.378C315.059 234.378 328.662 229.844 329.871 233.169C331.08 236.494 330.778 273.677 330.476 276.095C330.173 278.513 329.266 277.304 330.173 278.513C331.08 279.722 331.08 277.002 330.778 280.327C330.476 283.652 330.173 284.257 330.173 284.257C330.173 284.257 335.615 296.953 325.941 296.651C316.268 296.349 320.802 287.28 320.802 287.28C320.802 287.28 319.291 284.559 320.198 283.048C321.104 281.536 321.407 279.118 320.198 277.909C318.988 276.7 321.407 274.281 321.709 273.374C322.011 272.467 322.918 272.77 320.5 269.747C318.082 266.724 319.291 265.212 319.593 264.305C319.895 263.399 317.477 257.957 317.477 257.957L315.059 234.378Z" fill="#2F2E41"/>
<path d="M302.06 122.227C302.06 122.227 299.944 115.879 298.735 114.67C297.526 113.461 296.741 110.332 296.741 110.332C296.741 110.332 289.968 112.856 288.154 113.461C286.341 114.065 280.295 114.065 280.295 114.972V134.319C280.295 134.319 279.69 138.249 280.899 148.224C282.109 158.2 285.736 164.246 281.504 168.478C277.272 172.71 280.899 182.988 283.015 184.802C285.131 186.616 326.243 195.987 326.546 173.919C326.546 173.919 316.57 156.386 320.802 150.643C325.034 144.899 328.662 135.226 328.662 135.226V115.879C328.662 115.879 322.011 113.763 319.895 113.461C317.779 113.158 312.64 107.415 312.036 107.717C311.431 108.019 310.263 107.705 310.263 107.705L310.222 111.949L302.06 122.227Z" fill="#6C63FF"/>
<path d="M284.527 116.483L280.295 114.972C280.295 114.972 275.156 117.693 275.156 118.297C275.156 118.902 272.133 121.622 270.621 122.832C269.11 124.041 264.877 124.343 264.877 124.948C264.877 125.552 251.577 135.226 252.786 136.737C253.995 138.249 257.925 143.69 260.041 143.69C262.157 143.69 267.296 138.249 268.203 137.946C269.11 137.644 278.481 131.9 281.504 132.807C284.527 133.714 284.527 116.483 284.527 116.483Z" fill="#6C63FF"/>
<path d="M322.918 117.088L328.662 115.879C328.662 115.879 339.544 124.041 339.846 124.343C340.149 124.645 357.077 135.528 356.17 137.644C355.263 139.76 345.59 142.783 343.172 141.876C340.753 140.969 330.475 133.412 326.545 134.319C322.616 135.226 322.918 117.088 322.918 117.088Z" fill="#6C63FF"/>
<path d="M314.001 90.6373C315.436 84.6096 314.849 83.0085 314.849 83.0085L296.477 78.4672L290.078 84.6599V91.059L290.724 93.0556C290.724 93.0556 293.381 91.059 292.349 88.1691C292.349 88.1691 312.969 94.9722 314.001 90.6373Z" fill="#2F2E41"/>
<path d="M314.229 87.2632L312.489 89.1258C315.234 89.159 311.578 111.249 312.791 114.821L317.325 114.924V85.4998L314.229 87.2632Z" fill="#2F2E41"/>
<path d="M290.119 94.567C290.62 94.567 291.026 93.6873 291.026 92.6021C291.026 91.5169 290.62 90.6372 290.119 90.6372C289.618 90.6372 289.212 91.5169 289.212 92.6021C289.212 93.6873 289.618 94.567 290.119 94.567Z" fill="#FFB9B9"/>
<path d="M313.396 94.567C313.897 94.567 314.303 93.6873 314.303 92.6021C314.303 91.5169 313.897 90.6372 313.396 90.6372C312.895 90.6372 312.489 91.5169 312.489 92.6021C312.489 93.6873 312.895 94.567 313.396 94.567Z" fill="#FFB9B9"/>
<path d="M149.313 262.766L148.771 262.223L172.113 238.88L151.458 218.225L152.001 217.682L173.199 238.88L149.313 262.766Z" fill="#2F2E41"/>
<path d="M171.312 247.136C175.766 247.136 179.376 243.525 179.376 239.072C179.376 234.619 175.766 231.009 171.312 231.009C166.859 231.009 163.249 234.619 163.249 239.072C163.249 243.525 166.859 247.136 171.312 247.136Z" fill="#6C63FF"/>
<path d="M150.194 270.558C154.647 270.558 158.257 266.948 158.257 262.494C158.257 258.041 154.647 254.431 150.194 254.431C145.74 254.431 142.13 258.041 142.13 262.494C142.13 266.948 145.74 270.558 150.194 270.558Z" fill="#6C63FF"/>
<path d="M150.85 218.225L150.307 217.682L173.649 194.339L152.994 173.684L153.537 173.141L174.735 194.339L150.85 218.225Z" fill="#2F2E41"/>
<path d="M153.266 181.476C157.719 181.476 161.329 177.866 161.329 173.413C161.329 168.959 157.719 165.349 153.266 165.349C148.812 165.349 145.202 168.959 145.202 173.413C145.202 177.866 148.812 181.476 153.266 181.476Z" fill="#6C63FF"/>
<path d="M172.848 202.595C177.301 202.595 180.912 198.985 180.912 194.531C180.912 190.078 177.301 186.468 172.848 186.468C168.395 186.468 164.785 190.078 164.785 194.531C164.785 198.985 168.395 202.595 172.848 202.595Z" fill="#6C63FF"/>
<path d="M151.73 226.017C156.183 226.017 159.793 222.407 159.793 217.954C159.793 213.5 156.183 209.89 151.73 209.89C147.277 209.89 143.667 213.5 143.667 217.954C143.667 222.407 147.277 226.017 151.73 226.017Z" fill="#6C63FF"/>
<path opacity="0.3" d="M93.3658 156.902H53.4326V164.197H93.3658V156.902Z" fill="#6C63FF"/>
<path opacity="0.3" d="M252.714 239.456H212.781V241.376H252.714V239.456Z" fill="#6C63FF"/>
<path opacity="0.3" d="M252.714 245.216H212.781V247.136H252.714V245.216Z" fill="#6C63FF"/>
<path opacity="0.3" d="M252.714 250.975H212.781V252.895H252.714V250.975Z" fill="#6C63FF"/>
<path opacity="0.3" d="M252.714 256.735H212.781V258.655H252.714V256.735Z" fill="#6C63FF"/>
<path opacity="0.3" d="M252.714 262.494H212.781V264.414H252.714V262.494Z" fill="#6C63FF"/>
<path opacity="0.3" d="M252.714 268.254H212.781V270.174H252.714V268.254Z" fill="#6C63FF"/>
<path d="M47.0973 132.895C45.4266 132.895 43.7933 132.399 42.4042 131.471C41.015 130.543 39.9323 129.224 39.2929 127.68C38.6536 126.137 38.4863 124.438 38.8122 122.799C39.1382 121.161 39.9427 119.656 41.1241 118.474C42.3055 117.293 43.8107 116.488 45.4493 116.162C47.0879 115.836 48.7864 116.004 50.33 116.643C51.8735 117.282 53.1928 118.365 54.1211 119.754C55.0493 121.143 55.5447 122.777 55.5447 124.447C55.5422 126.687 54.6514 128.834 53.0677 130.418C51.4841 132.001 49.3369 132.892 47.0973 132.895ZM47.0973 116.768C45.5784 116.768 44.0937 117.218 42.8308 118.062C41.5679 118.906 40.5837 120.105 40.0024 121.509C39.4212 122.912 39.2691 124.456 39.5654 125.946C39.8617 127.435 40.5931 128.804 41.6671 129.878C42.7411 130.952 44.1094 131.683 45.5991 131.979C47.0888 132.276 48.6329 132.124 50.0361 131.542C51.4393 130.961 52.6387 129.977 53.4825 128.714C54.3264 127.451 54.7768 125.966 54.7768 124.447C54.7745 122.411 53.9647 120.459 52.525 119.02C51.0853 117.58 49.1333 116.77 47.0973 116.768Z" fill="#3F3D56"/>
<path d="M226.413 48.8048C224.742 48.8048 223.109 48.3094 221.72 47.3812C220.33 46.453 219.248 45.1337 218.608 43.5901C217.969 42.0466 217.802 40.3481 218.128 38.7094C218.454 37.0708 219.258 35.5656 220.44 34.3842C221.621 33.2028 223.126 32.3983 224.765 32.0724C226.403 31.7464 228.102 31.9137 229.645 32.5531C231.189 33.1924 232.508 34.2751 233.436 35.6643C234.365 37.0535 234.86 38.6867 234.86 40.3574C234.858 42.597 233.967 44.7442 232.383 46.3279C230.8 47.9115 228.652 48.8023 226.413 48.8048ZM226.413 32.678C224.894 32.678 223.409 33.1284 222.146 33.9722C220.883 34.816 219.899 36.0154 219.318 37.4186C218.737 38.8219 218.585 40.366 218.881 41.8556C219.177 43.3453 219.909 44.7136 220.983 45.7876C222.057 46.8616 223.425 47.593 224.915 47.8893C226.404 48.1856 227.948 48.0336 229.352 47.4523C230.755 46.8711 231.954 45.8868 232.798 44.6239C233.642 43.361 234.092 41.8763 234.092 40.3574C234.09 38.3214 233.28 36.3694 231.84 34.9297C230.401 33.4901 228.449 32.6803 226.413 32.678Z" fill="#3F3D56"/>
<path d="M174.645 71.0845C174.644 69.908 174.175 68.7801 173.343 67.9487C172.51 67.1174 171.382 66.6506 170.205 66.6509H93.9701C92.7929 66.6497 91.6635 67.1161 90.8302 67.9475C89.9968 68.779 89.5279 69.9074 89.5264 71.0845V125.939H174.645V71.0845Z" fill="#474157"/>
<path d="M172.328 73.0654V120.2C172.329 120.487 172.272 120.771 172.162 121.036C172.052 121.302 171.891 121.543 171.688 121.746C171.485 121.949 171.244 122.11 170.979 122.22C170.714 122.329 170.429 122.386 170.142 122.386H94.0386C93.7514 122.386 93.4671 122.329 93.2018 122.22C92.9365 122.11 92.6955 121.949 92.4925 121.746C92.2895 121.543 92.1284 121.302 92.0186 121.036C91.9088 120.771 91.8524 120.487 91.8525 120.2V73.0654C91.8525 72.4856 92.0829 71.9296 92.4928 71.5197C92.9028 71.1097 93.4588 70.8794 94.0386 70.8794H170.137C170.424 70.8787 170.709 70.9347 170.975 71.0442C171.241 71.1537 171.483 71.3146 171.686 71.5177C171.89 71.7208 172.051 71.962 172.161 72.2276C172.272 72.4932 172.328 72.7779 172.328 73.0654Z" fill="#4C4C78"/>
<path d="M172.328 73.0654H91.8525C91.8525 72.7784 91.9091 72.4942 92.019 72.229C92.1288 71.9639 92.2899 71.7229 92.4929 71.52C92.6959 71.3171 92.9369 71.1562 93.2021 71.0465C93.4673 70.9368 93.7515 70.8804 94.0386 70.8805H170.137C170.424 70.8796 170.709 70.9355 170.975 71.0449C171.241 71.1543 171.482 71.3151 171.686 71.5181C171.89 71.721 172.051 71.9622 172.161 72.2277C172.272 72.4932 172.328 72.7779 172.328 73.0654Z" fill="#C8CAD7"/>
<path d="M145.111 146.052V146.928H119.201V146.217C120.781 145.631 122.152 144.59 123.14 143.225C124.128 141.86 124.689 140.233 124.752 138.549C124.815 136.865 124.376 135.2 123.492 133.765C122.609 132.331 121.319 131.19 119.787 130.489H144.935C143.438 131.175 142.171 132.28 141.289 133.672C140.406 135.063 139.947 136.68 139.965 138.328C139.984 139.975 140.48 141.582 141.393 142.953C142.307 144.324 143.598 145.4 145.111 146.052Z" fill="#C8CAD7"/>
<path opacity="0.1" d="M144.936 130.489C143.78 131.02 142.757 131.802 141.943 132.779C141.129 133.756 140.544 134.903 140.23 136.135H124.494C124.18 134.903 123.595 133.756 122.78 132.779C121.966 131.802 120.944 131.02 119.788 130.489H144.936Z" fill="black"/>
<path d="M89.5264 126.025V130.944C89.5264 133.66 91.5141 135.862 93.9667 135.862H170.205C172.658 135.862 174.645 133.66 174.645 130.944V126.025H89.5264Z" fill="#C8CAD7"/>
<path opacity="0.1" d="M145.111 146.052V146.928H119.201V146.217C119.911 145.952 120.583 145.594 121.198 145.152H143.522C144.018 145.508 144.551 145.81 145.111 146.052Z" fill="black"/>
<path d="M152.609 145.426H111.703C111.115 145.426 110.638 145.902 110.638 146.49V146.958C110.638 147.545 111.115 148.022 111.703 148.022H152.609C153.197 148.022 153.674 147.545 153.674 146.958V146.49C153.674 145.902 153.197 145.426 152.609 145.426Z" fill="#C8CAD7"/>
<path d="M132.087 70.8302C132.653 70.8302 133.112 70.3712 133.112 69.805C133.112 69.2388 132.653 68.7798 132.087 68.7798C131.521 68.7798 131.062 69.2388 131.062 69.805C131.062 70.3712 131.521 70.8302 132.087 70.8302Z" fill="white"/>
<path d="M132.087 133.677C133.483 133.677 134.615 132.545 134.615 131.149C134.615 129.753 133.483 128.621 132.087 128.621C130.691 128.621 129.56 129.753 129.56 131.149C129.56 132.545 130.691 133.677 132.087 133.677Z" fill="white"/>
<path d="M108.858 73.0162V123.429H94.0386C93.7514 123.429 93.4671 123.373 93.2018 123.263C92.9365 123.153 92.6955 122.992 92.4925 122.789C92.2895 122.586 92.1284 122.345 92.0186 122.08C91.9088 121.814 91.8524 121.53 91.8525 121.243V74.1087L91.9321 73.8118L92.145 73.0162H108.858Z" fill="white"/>
<path d="M110.759 73.8116V78.3495H91.8525V74.1086L91.9321 73.8116H110.759Z" fill="#4C4C78"/>
<path d="M94.0385 73.5629C94.3405 73.5629 94.5853 73.3181 94.5853 73.0161C94.5853 72.7142 94.3405 72.4694 94.0385 72.4694C93.7365 72.4694 93.4917 72.7142 93.4917 73.0161C93.4917 73.3181 93.7365 73.5629 94.0385 73.5629Z" fill="#EDEDF4"/>
<path d="M95.6776 73.5629C95.9796 73.5629 96.2244 73.3181 96.2244 73.0161C96.2244 72.7142 95.9796 72.4694 95.6776 72.4694C95.3757 72.4694 95.1309 72.7142 95.1309 73.0161C95.1309 73.3181 95.3757 73.5629 95.6776 73.5629Z" fill="#EDEDF4"/>
<path d="M97.3168 73.5629C97.6188 73.5629 97.8636 73.3181 97.8636 73.0161C97.8636 72.7142 97.6188 72.4694 97.3168 72.4694C97.0148 72.4694 96.77 72.7142 96.77 73.0161C96.77 73.3181 97.0148 73.5629 97.3168 73.5629Z" fill="#EDEDF4"/>
<path d="M106.032 75.8094H94.6782V76.8548H106.032V75.8094Z" fill="#6C63FF"/>
<path opacity="0.5" d="M106.032 80.9076H94.6782V81.953H106.032V80.9076Z" fill="#6C63FF"/>
<path opacity="0.5" d="M106.032 84.512H94.6782V85.5574H106.032V84.512Z" fill="#6C63FF"/>
<path opacity="0.5" d="M106.032 88.1166H94.6782V89.162H106.032V88.1166Z" fill="#6C63FF"/>
<path opacity="0.5" d="M106.032 91.72H94.6782V92.7654H106.032V91.72Z" fill="#6C63FF"/>
<path opacity="0.5" d="M106.032 95.3245H94.6782V96.3699H106.032V95.3245Z" fill="#6C63FF"/>
<path opacity="0.5" d="M106.032 98.929H94.6782V99.9743H106.032V98.929Z" fill="#6C63FF"/>
<path opacity="0.5" d="M106.032 102.532H94.6782V103.578H106.032V102.532Z" fill="#6C63FF"/>
<path opacity="0.5" d="M168.463 79.6538H118.153V79.8219H168.463V79.6538Z" fill="#DCE0ED"/>
<path opacity="0.5" d="M168.463 83.5563H118.153V83.7243H168.463V83.5563Z" fill="#DCE0ED"/>
<path opacity="0.5" d="M168.463 87.46H118.153V87.628H168.463V87.46Z" fill="#DCE0ED"/>
<path opacity="0.5" d="M168.463 91.3625H118.153V91.5306H168.463V91.3625Z" fill="#DCE0ED"/>
<path opacity="0.5" d="M168.463 95.2651H118.153V95.4332H168.463V95.2651Z" fill="#DCE0ED"/>
<path opacity="0.5" d="M168.464 95.432H118.091V87.7569L122.711 90.0337L127.492 90.6813L131.687 89.4163L136.748 85.4913L139.294 84.0213L141.155 83.6627L142.935 83.758L145.864 85.2045L149.844 87.7401L152.968 88.1423L155.445 87.2885L160.695 82.9882L163.375 82.0325L166.179 82.4661L168.464 83.7849V95.432Z" fill="#6C63FF"/>
<path d="M126.871 90.6835C122.336 90.6835 118.143 87.9093 118.091 87.8734L118.216 87.6874C118.281 87.7311 124.732 92.0001 130.215 89.8611C132.216 89.0824 133.637 87.869 135.017 86.697C136.455 85.4723 137.813 84.3149 139.662 83.8129C141.791 83.2381 144.105 83.7591 145.867 85.2067C147.373 86.4448 150.374 88.4337 153.544 87.8387C155.159 87.5362 156.522 86.3552 157.964 85.1059C160.725 82.7081 163.589 80.233 168.529 83.7871L168.398 83.9686C163.597 80.5187 160.805 82.9367 158.107 85.2751C156.642 86.5457 155.257 87.7401 153.582 88.0594C150.321 88.6701 147.258 86.6432 145.722 85.3804C144.015 83.9776 141.771 83.4756 139.718 84.0303C137.916 84.5188 136.581 85.6594 135.159 86.8673C133.769 88.0516 132.33 89.2774 130.296 90.0707C129.203 90.4864 128.041 90.6942 126.871 90.6835Z" fill="#6C63FF"/>
<path d="M142.362 84.8873C143.051 84.8873 143.609 84.329 143.609 83.6403C143.609 82.9515 143.051 82.3932 142.362 82.3932C141.673 82.3932 141.115 82.9515 141.115 83.6403C141.115 84.329 141.673 84.8873 142.362 84.8873Z" fill="#6C63FF"/>
<g opacity="0.5">
<path opacity="0.5" d="M129.994 104.176H122.599V105.745H129.994V104.176Z" fill="#DCE0ED"/>
<path opacity="0.5" d="M146.975 104.176H139.58V105.745H146.975V104.176Z" fill="#DCE0ED"/>
<path opacity="0.5" d="M163.955 104.176H156.56V105.745H163.955V104.176Z" fill="#DCE0ED"/>
</g>
<path d="M122.076 115.131C122.076 112.841 123.939 111.081 126.23 111.081H126.263V110.039H126.23C123.364 110.039 121.034 112.266 121.034 115.131C121.034 115.872 121.192 116.605 121.5 117.279C121.807 117.954 122.255 118.555 122.814 119.041L123.552 118.303C123.09 117.914 122.718 117.428 122.463 116.88C122.208 116.332 122.076 115.735 122.076 115.131Z" fill="#6C63FF"/>
<path opacity="0.5" d="M126.367 110.041V111.083C127.034 111.087 127.691 111.252 128.281 111.564C128.87 111.876 129.377 112.325 129.756 112.874C130.135 113.423 130.377 114.055 130.46 114.717C130.544 115.379 130.466 116.052 130.235 116.677C130.003 117.303 129.624 117.864 129.13 118.312C128.636 118.761 128.041 119.083 127.395 119.253C126.75 119.423 126.073 119.434 125.423 119.287C124.772 119.14 124.166 118.838 123.657 118.407L122.916 119.145C123.547 119.697 124.302 120.088 125.117 120.285C125.932 120.481 126.783 120.477 127.596 120.274C128.409 120.071 129.161 119.673 129.787 119.116C130.414 118.559 130.896 117.859 131.193 117.075C131.49 116.291 131.593 115.447 131.492 114.615C131.392 113.782 131.092 112.987 130.618 112.295C130.144 111.604 129.509 111.038 128.768 110.646C128.028 110.253 127.203 110.045 126.365 110.041H126.367Z" fill="#6C63FF"/>
<path opacity="0.5" d="M160.429 111.029C162.72 111.029 164.479 112.892 164.479 115.184C164.479 115.194 164.479 115.205 164.479 115.216H165.521C165.521 115.205 165.521 115.194 165.521 115.184C165.521 112.318 163.294 109.987 160.429 109.987C159.688 109.987 158.956 110.145 158.281 110.453C157.606 110.76 157.006 111.208 156.519 111.767L157.257 112.506C157.647 112.043 158.132 111.671 158.68 111.416C159.228 111.161 159.825 111.029 160.429 111.029Z" fill="#6C63FF"/>
<path d="M165.52 115.32H164.478C164.473 115.987 164.308 116.644 163.996 117.234C163.684 117.824 163.235 118.33 162.686 118.709C162.137 119.089 161.505 119.33 160.843 119.414C160.181 119.497 159.509 119.419 158.883 119.188C158.257 118.956 157.696 118.577 157.248 118.083C156.8 117.589 156.477 116.994 156.307 116.349C156.138 115.703 156.126 115.027 156.273 114.376C156.42 113.725 156.722 113.119 157.153 112.61L156.418 111.871C155.866 112.503 155.476 113.258 155.279 114.073C155.083 114.888 155.086 115.738 155.29 116.551C155.493 117.364 155.89 118.116 156.447 118.743C157.004 119.369 157.705 119.851 158.489 120.148C159.273 120.445 160.117 120.548 160.949 120.448C161.781 120.348 162.577 120.048 163.268 119.573C163.959 119.099 164.525 118.464 164.918 117.724C165.311 116.983 165.518 116.158 165.523 115.32H165.52Z" fill="#6C63FF"/>
<path opacity="0.5" d="M145.325 110.345L145.118 111.383C146.643 111.998 147.618 113.493 147.618 115.235C147.618 115.984 147.416 116.719 147.033 117.362C146.65 118.005 146.1 118.533 145.441 118.889C144.783 119.246 144.04 119.417 143.292 119.386C142.544 119.355 141.818 119.123 141.191 118.713C140.565 118.303 140.06 117.732 139.732 117.059C139.403 116.386 139.263 115.637 139.325 114.891C139.387 114.145 139.65 113.429 140.086 112.82C140.521 112.211 141.113 111.731 141.799 111.431L141.338 110.495C140.486 110.879 139.754 111.485 139.217 112.249C138.681 113.014 138.361 113.909 138.29 114.84C138.22 115.771 138.402 116.704 138.817 117.541C139.232 118.377 139.864 119.086 140.648 119.594C141.433 120.101 142.339 120.387 143.272 120.423C144.205 120.458 145.131 120.242 145.951 119.796C146.772 119.349 147.457 118.69 147.934 117.888C148.412 117.085 148.664 116.169 148.664 115.235C148.664 112.986 147.333 111.068 145.325 110.345Z" fill="#6C63FF"/>
<path d="M143.599 111.021C144.096 111.021 144.589 111.123 145.045 111.321L145.252 110.285C144.725 110.082 144.164 109.978 143.599 109.979C142.864 109.979 142.139 110.135 141.47 110.437L141.936 111.371C142.46 111.14 143.026 111.021 143.599 111.021Z" fill="#6C63FF"/>
<g filter="url(#filter0_d)">
<path fill-rule="evenodd" clip-rule="evenodd" d="M364.312 45.5325L355.236 48.9946V52.8907H355.235V59.9026C355.235 63.6486 359.26 66.3608 363.196 69.0139C363.565 69.2628 363.934 69.5112 364.298 69.7599C364.663 69.5112 365.031 69.2628 365.401 69.0139C369.337 66.3608 373.361 63.6486 373.361 59.9026V53.2052H373.388V48.9946L364.312 45.5325Z" fill="#1C2468"/>
</g>
<path d="M369.336 54.7152C368.994 54.1126 366.847 52.0945 364.358 55.0162C361.745 52.0945 359.723 54.1126 359.381 54.7152C358.758 55.8295 359.132 57.5166 360.003 58.3299L364.359 62.5473L368.715 58.3299C369.585 57.5166 369.958 55.8301 369.336 54.7152H369.336Z" fill="#F4F8FB"/>
<g filter="url(#filter1_d)">
<path fill-rule="evenodd" clip-rule="evenodd" d="M78.0775 44.7645L69.0013 48.2266V52.1227H69V59.1346C69 62.8806 73.0242 65.5929 76.9606 68.2459C77.3299 68.4949 77.6985 68.7433 78.0629 68.992C78.4273 68.7433 78.7959 68.4949 79.1652 68.2459C83.1016 65.5929 87.1258 62.8806 87.1258 59.1346V52.4373H87.1538V48.2266L78.0775 44.7645Z" fill="#1C2468"/>
</g>
<path d="M83.1006 53.9473C82.7582 53.3446 80.6116 51.3266 78.1231 54.2483C75.5098 51.3266 73.4874 53.3446 73.1455 53.9473C72.5231 55.0616 72.8964 56.7487 73.7679 57.562L78.1237 61.7793L82.4794 57.562C83.3497 56.7487 83.7231 55.0622 83.1007 53.9473H83.1006Z" fill="#F4F8FB"/>
<g filter="url(#filter2_d)">
<path d="M293 39.061L303.5 35L314 39.061V44H293V39.061Z" fill="#0024E1"/>
</g>
<path d="M314 43V51.3132C314 56.1711 308.422 59.5627 303.5 63C298.578 59.5627 293 56.1711 293 51.3132V43H314Z" fill="#0024E1"/>
<path d="M309.301 45.324C308.904 44.6252 306.415 42.2853 303.53 45.673C300.5 42.2853 298.155 44.6252 297.758 45.324C297.037 46.6161 297.469 48.5722 298.48 49.5152L303.53 54.4052L308.581 49.5152C309.59 48.5722 310.023 46.6167 309.301 45.324H309.301Z" fill="#F4F8FB"/>
<path d="M104.91 180.275L106.365 183.282C106.365 183.282 114.625 194.305 109.523 196.032C104.42 197.759 101.713 185.577 101.713 185.577L100.364 183.872L104.91 180.275Z" fill="#A0616A"/>
<path d="M95.3964 123.336L96.7541 122.761C96.7541 122.761 98.3608 123.336 98.3608 125.806C98.3608 128.276 96.3846 164.343 96.3846 164.343L100.337 184.105L94.9024 185.093L86.5034 166.813L95.3964 123.336Z" fill="#575A89"/>
<path d="M95.3964 123.336L96.7541 122.761C96.7541 122.761 98.3608 123.336 98.3608 125.806C98.3608 128.276 96.3846 164.343 96.3846 164.343L107.007 181.388L100.09 186.328L86.5034 166.813L95.3964 123.336Z" fill="#575A89"/>
<path d="M94.4081 180.647C94.4081 180.647 100.831 183.117 100.337 187.563C99.8427 192.01 93.42 280.446 93.42 280.446L95.3962 290.327L76.622 290.821L76.1279 227.088L62.7884 290.821H44.0142L57.3537 178.67L94.4081 180.647Z" fill="#2F2E41"/>
<path d="M92.9261 288.351L97.3726 292.798C97.3726 292.798 107.748 294.774 105.278 298.232C102.807 301.691 77.1162 297.244 77.1162 297.244L77.6103 289.339L92.9261 288.351Z" fill="#2F2E41"/>
<path d="M60.8123 288.351L65.2588 292.798C65.2588 292.798 75.634 294.774 73.1637 298.232C70.6935 301.691 45.0024 297.244 45.0024 297.244L45.4965 289.339L60.8123 288.351Z" fill="#2F2E41"/>
<path d="M78.5986 105.55C85.1473 105.55 90.456 100.241 90.456 93.6922C90.456 87.1436 85.1473 81.8348 78.5986 81.8348C72.0499 81.8348 66.7412 87.1436 66.7412 93.6922C66.7412 100.241 72.0499 105.55 78.5986 105.55Z" fill="#A0616A"/>
<path d="M86.0094 100.609L85.0212 120.865L69.7051 111.972L71.6816 100.609H86.0094Z" fill="#A0616A"/>
<path d="M69.2114 107.032L83.5393 117.407L86.0097 109.996L90.4561 121.854L87.9857 143.098L69.2114 107.032Z" fill="#3341C0"/>
<path d="M70.7474 105.568L85.0213 127.288L85.5939 109.128L87.3518 110.514C88.3193 111.276 89.1013 112.248 89.639 113.357C90.1766 114.465 90.456 115.681 90.456 116.913L97.3728 123.336L94.9025 148.039L94.4084 177.188C94.4084 177.188 97.3728 179.658 96.3847 181.141C95.3966 182.623 91.4441 186.081 86.9976 186.081C82.551 186.081 54.8838 182.623 54.8838 180.646C54.8838 178.67 55.8719 152.979 55.8719 152.979V118.395L67.7293 109.502L70.7474 105.568Z" fill="#575A89"/>
<path d="M53.8955 187.563L60.3184 196.951L62.7883 186.081L59.824 184.105L53.8955 187.563Z" fill="#A0616A"/>
<path opacity="0.2" d="M85.0516 201.72L75.5537 227.447L76.4809 227.789L85.9788 202.062L85.0516 201.72Z" fill="black"/>
<path d="M71.4348 82.0818C71.4348 82.0818 72.9169 74.671 81.3159 76.1531L80.3278 76.6472C80.3278 76.6472 88.2327 75.6591 87.2446 80.1056C87.2446 80.1056 93.6674 84.0581 92.1852 88.5046C91.3136 91.0818 90.6527 93.7254 90.209 96.4095L88.7268 94.9274C88.7268 94.9274 87.2446 85.0462 78.3516 86.0343C71.6818 86.7754 68.9645 89.925 68.2697 92.1946C67.9498 93.2617 67.5415 94.3004 67.0491 95.2997L66.4942 95.4214C66.4942 95.4214 63.5298 84.5521 71.4348 82.0818Z" fill="#2F2E41"/>
<path d="M61.3065 117.901L56.8089 117.692L55.8719 118.395C54.7963 119.47 53.8053 120.626 52.9075 121.854C51.9194 123.336 39.0739 159.402 39.0739 159.402C38.8355 161.592 39.1762 163.807 40.062 165.825C41.5442 169.283 53.4016 190.034 53.4016 190.034L62.2946 184.599L50.4372 160.39L58.8362 148.533L61.3065 117.901Z" fill="#575A89"/>
<defs>
<filter id="filter0_d" x="320.235" y="10.5325" width="118.153" height="124.227" filterUnits="userSpaceOnUse" color-interpolation-filters="sRGB">
<feFlood flood-opacity="0" result="BackgroundImageFix"/>
<feColorMatrix in="SourceAlpha" type="matrix" values="0 0 0 0 0 0 0 0 0 0 0 0 0 0 0 0 0 0 127 0"/>
<feOffset dx="15" dy="15"/>
<feGaussianBlur stdDeviation="25"/>
<feColorMatrix type="matrix" values="0 0 0 0 0 0 0 0 0 0 0 0 0 0 0 0 0 0 0.25 0"/>
<feBlend mode="normal" in2="BackgroundImageFix" result="effect1_dropShadow"/>
<feBlend mode="normal" in="SourceGraphic" in2="effect1_dropShadow" result="shape"/>
</filter>
<filter id="filter1_d" x="34" y="9.76453" width="118.154" height="124.227" filterUnits="userSpaceOnUse" color-interpolation-filters="sRGB">
<feFlood flood-opacity="0" result="BackgroundImageFix"/>
<feColorMatrix in="SourceAlpha" type="matrix" values="0 0 0 0 0 0 0 0 0 0 0 0 0 0 0 0 0 0 127 0"/>
<feOffset dx="15" dy="15"/>
<feGaussianBlur stdDeviation="25"/>
<feColorMatrix type="matrix" values="0 0 0 0 0 0 0 0 0 0 0 0 0 0 0 0 0 0 0.25 0"/>
<feBlend mode="normal" in2="BackgroundImageFix" result="effect1_dropShadow"/>
<feBlend mode="normal" in="SourceGraphic" in2="effect1_dropShadow" result="shape"/>
</filter>
<filter id="filter2_d" x="258" y="0" width="121" height="109" filterUnits="userSpaceOnUse" color-interpolation-filters="sRGB">
<feFlood flood-opacity="0" result="BackgroundImageFix"/>
<feColorMatrix in="SourceAlpha" type="matrix" values="0 0 0 0 0 0 0 0 0 0 0 0 0 0 0 0 0 0 127 0"/>
<feOffset dx="15" dy="15"/>
<feGaussianBlur stdDeviation="25"/>
<feColorMatrix type="matrix" values="0 0 0 0 0 0 0 0 0 0 0 0 0 0 0 0 0 0 0.25 0"/>
<feBlend mode="normal" in2="BackgroundImageFix" result="effect1_dropShadow"/>
<feBlend mode="normal" in="SourceGraphic" in2="effect1_dropShadow" result="shape"/>
</filter>
<linearGradient id="paint0_linear" x1="351.145" y1="296.764" x2="351.145" y2="78.5375" gradientUnits="userSpaceOnUse">
<stop stop-color="#808080" stop-opacity="0.25"/>
<stop offset="0.54" stop-color="#808080" stop-opacity="0.12"/>
<stop offset="1" stop-color="#808080" stop-opacity="0.1"/>
</linearGradient>
</defs>
</svg>
