<svg width="325" height="389" viewBox="0 0 325 389" fill="none" xmlns="http://www.w3.org/2000/svg">
<path fill-rule="evenodd" clip-rule="evenodd" d="M324.257 261.082C324.257 261.082 320.845 213.164 282.928 184.007C282.928 184.007 278.754 200.595 287.325 214.339L294.195 210.925L288.228 219.48C288.228 219.48 293.158 236.012 304.482 245.444L308.027 236.943V248.588L324.257 261.082Z" stroke="white"/>
<path fill-rule="evenodd" clip-rule="evenodd" d="M324.256 277.98C324.256 277.98 313.314 213.765 228.838 225.934C228.838 225.934 235.017 240.159 251.998 242.694L257.589 238.341L254.401 243.357C254.401 243.357 274.35 249.36 286.447 260.483L290.54 253.51L289.747 262.312L298.788 268.358L302.512 263.587L301.748 269.442L324.256 277.98Z" fill="url(#paint0_linear)"/>
<rect x="133.926" width="191.061" height="388.709" rx="25.8" fill="black"/>
<rect x="143.681" y="10.5718" width="171.436" height="367.334" rx="23.22" fill="#bdcaca"/>
<mask id="mask0" mask-type="alpha" maskUnits="userSpaceOnUse" x="143" y="10" width="173" height="368">
<rect x="143.681" y="10.5718" width="171.436" height="367.334" rx="23.22" fill="white"/>
</mask>
<g mask="url(#mask0)">
<path opacity="0.1" fill-rule="evenodd" clip-rule="evenodd" d="M310.135 14.6376L145.308 377.906L133.926 10.5716L171.357 -16.6567C171.357 -16.6567 319.89 -3.51988e-05 319.89 -3.51988e-05C319.89 -3.51988e-05 310.135 14.6376 310.135 14.6376Z" fill="white"/>
</g>
<path d="M184.333 6.50537H274.579V15.5694C274.579 19.5458 271.356 22.7694 267.379 22.7694H191.533C187.557 22.7694 184.333 19.5458 184.333 15.5694V6.50537Z" fill="black"/>
<path d="M218.092 103L199 83.6667L205.362 77.2237L218.092 90.1141L262.638 45L269 51.4473L218.092 103Z" fill="#1C2468"/>
<path fill-rule="evenodd" clip-rule="evenodd" d="M102.152 83.29L0 122.255V166.139V169.645V245.057C0 287.217 45.292 317.744 89.5953 347.603C93.7522 350.405 97.9003 353.201 102.002 356C106.103 353.201 110.251 350.405 114.408 347.603C158.711 317.744 204.003 287.217 204.003 245.057V169.645H204.304V122.255L102.152 83.29Z" fill="white"/>
<path d="M150.241 182.082C146.933 175.297 126.194 152.576 102.152 185.472C76.904 152.576 57.3649 175.297 54.0625 182.082C48.0492 194.629 51.656 213.624 60.0758 222.781L102.158 270.265L144.24 222.781C152.648 213.624 156.255 194.635 150.242 182.082H150.241Z" fill="#3341C0"/>
<path fill-rule="evenodd" clip-rule="evenodd" d="M240.873 191.935C243.976 189.816 246.481 186.872 247.227 183.02C249.374 171.923 233.436 170.22 228.988 174.92C224.54 179.619 221.157 193.657 224.739 195.67C226.168 196.472 229.692 196.388 233.549 195.293L227.541 209.367L239.864 212.669L240.873 191.935Z" fill="#784931"/>
<path fill-rule="evenodd" clip-rule="evenodd" d="M235.463 170.237C237.283 170.18 239.773 170.662 240.77 171.054C240.558 169.509 240.74 167.899 241.333 166.443C241.909 165.028 242.903 163.958 243.864 162.815C244.307 162.289 244.786 161.775 245.385 161.442C245.995 161.103 246.691 160.957 247.374 160.982C248.072 161.007 248.757 161.204 249.379 161.517C249.654 161.656 249.88 161.858 250.146 162.008C250.419 162.162 250.61 162.019 250.871 161.893C251.501 161.59 252.31 161.574 252.978 161.67C253.729 161.778 254.454 162.089 255.083 162.511C255.696 162.923 256.244 163.471 256.586 164.147C256.738 164.448 256.861 164.777 256.908 165.116C256.927 165.256 256.916 165.332 257.029 165.412C257.134 165.486 257.271 165.523 257.38 165.596C258.439 166.298 259.195 167.456 259.43 168.745C259.567 169.497 259.402 170.712 259.008 172.018C258.614 173.324 256.493 176.439 255.035 177.392C253.734 178.242 252.064 178.586 250.556 178.528C251.213 179.849 251.483 181.353 251.584 182.835C251.693 184.445 251.594 186.061 251.291 187.654C251.003 189.167 250.593 190.739 249.853 192.097C249.161 193.366 248.16 194.292 246.799 194.685C246.175 194.865 245.532 194.953 244.892 195.02C244.261 195.085 243.629 195.145 242.997 195.107C241.799 195.035 240.502 194.645 239.868 193.515C239.639 193.108 239.401 192.609 239.277 192.153C239.232 191.989 239.207 191.883 239.345 191.772C239.51 191.638 239.738 191.563 239.928 191.474C241.007 190.97 241.818 190.127 242.27 188.989C242.729 187.835 242.818 186.21 241.788 185.376C240.517 184.347 238.73 184.658 237.263 185.002C237.229 182.948 236.57 180.931 235.049 179.586C233.366 178.098 231.169 177.387 229.396 176.022C228.934 175.667 228.47 175.279 228.205 174.736C228.095 174.508 227.971 174.219 227.972 173.958C227.974 173.616 228.254 173.403 228.482 173.197C229.69 172.102 233.642 170.295 235.463 170.237Z" fill="#191847"/>
<path fill-rule="evenodd" clip-rule="evenodd" d="M237.057 255.579L217.786 322.947L203.725 372.601H193.469L208.411 255.579H237.057Z" fill="#191847"/>
<path fill-rule="evenodd" clip-rule="evenodd" d="M242.21 255.579C242.656 290.301 244.176 309.24 244.644 312.395C245.112 315.549 252.189 335.618 265.874 372.601H255.25C237.828 337.122 228.102 317.053 226.073 312.395C224.044 307.736 217.783 288.797 208.352 255.579H242.21Z" fill="#2F3676"/>
<path fill-rule="evenodd" clip-rule="evenodd" d="M266.826 382.215L266.294 371.052H255.131C249.838 374.773 242.928 377.785 234.4 380.088V382.215H254.6L261.51 381.151V382.215H266.826Z" fill="#191847"/>
<path fill-rule="evenodd" clip-rule="evenodd" d="M205.162 382.215L204.631 371.052H193.468C188.175 374.773 181.264 377.785 172.737 380.088V382.215H192.936L199.846 381.151V382.215H205.162Z" fill="#191847"/>
<path fill-rule="evenodd" clip-rule="evenodd" d="M193.729 241.545L175.576 252.09C170.874 252.835 166.893 253.961 163.633 255.465C162.84 256.046 161.824 257.284 164.854 257.371C167.884 257.458 171.068 257.685 171.376 258.749C171.683 259.814 169.737 260.842 170.431 262.307C170.894 263.284 173.775 261.261 179.076 256.238L196.496 251.108L193.729 241.545ZM266.303 248.394L256.795 248.099C262.958 271.341 266.29 283.646 266.79 285.012C267.916 288.088 265.157 292.613 263.959 295.054C267.527 296.797 267.345 290.808 271.843 293.087C275.948 295.167 279.001 298.779 283.922 295.991C284.527 295.648 285.223 294.302 283.691 293.175C279.874 290.369 274.401 285.5 273.693 283.936C272.727 281.804 270.264 269.956 266.303 248.394Z" fill="#B28B67"/>
<path fill-rule="evenodd" clip-rule="evenodd" d="M234.182 203.949L228.77 201.046C217.561 219.044 202.633 235.739 180.421 248.147L183.77 257.238C202.601 250.243 220.127 245.321 229.33 231.465C232.419 226.815 233.299 210.005 234.182 203.949Z" fill="#C5CFD6"/>
<path fill-rule="evenodd" clip-rule="evenodd" d="M244.298 261.951C227.534 260.785 214.58 258.501 205.436 255.098C204.303 254.677 204.462 252.694 205.239 251.465C217.329 232.341 226.299 215.375 228.824 201.055C230.239 202.107 232.933 202.703 236.908 202.841C244.731 219.436 246.537 237.212 244.298 261.951Z" fill="#323337"/>
<path fill-rule="evenodd" clip-rule="evenodd" d="M239.72 202.062L235.375 201.296C233.32 207.037 215.994 286.641 201.52 311.129L254.814 320.526C257.895 296.299 253.869 265.833 248.894 240.057C255.748 248.93 260.642 262.781 263.578 281.61L274.01 280.82C272.199 247.685 261.064 221.603 240.603 202.571C240.573 202.448 240.544 202.324 240.514 202.202L240.13 202.134C240.004 202.019 239.878 201.904 239.752 201.789L239.72 202.062V202.062Z" fill="#DDE3E9"/>
<defs>
<linearGradient id="paint0_linear" x1="223.123" y1="224.399" x2="223.123" y2="284.4" gradientUnits="userSpaceOnUse">
<stop stop-color="#BFBDFF"/>
<stop offset="1" stop-color="#EFEDFF"/>
</linearGradient>
</defs>
</svg>
