<svg width="333" height="216" viewBox="0 0 333 216" fill="none" xmlns="http://www.w3.org/2000/svg">
<g clip-path="url(#clip0)">
<path d="M209 62.9231H209.919V37.6357C209.919 35.7137 210.296 33.8105 211.029 32.0348C211.762 30.2592 212.836 28.6457 214.19 27.2867C215.544 25.9276 217.151 24.8496 218.92 24.1141C220.689 23.3786 222.584 23 224.499 23H277.869C279.784 23 281.68 23.3786 283.449 24.1141C285.218 24.8496 286.825 25.9276 288.179 27.2867C289.533 28.6457 290.607 30.2591 291.339 32.0348C292.072 33.8105 292.449 35.7136 292.449 37.6356V176.364C292.449 180.246 290.913 183.969 288.179 186.713C285.445 189.458 281.736 191 277.869 191H224.499C220.632 191 216.924 189.458 214.19 186.713C211.455 183.969 209.919 180.246 209.919 176.364V80.9231H209L209 62.9231Z" fill="#3F3D56"/>
<path d="M223.911 26.8076H230.878C230.557 27.5961 230.435 28.4515 230.521 29.2986C230.608 30.1457 230.901 30.9584 231.374 31.6652C231.847 32.372 232.486 32.9511 233.235 33.3515C233.983 33.7519 234.819 33.9614 235.667 33.9615H266.242C267.09 33.9614 267.926 33.7519 268.674 33.3515C269.423 32.9511 270.062 32.372 270.535 31.6652C271.008 30.9584 271.301 30.1457 271.388 29.2986C271.474 28.4515 271.352 27.5961 271.031 26.8076H277.538C280.426 26.8076 283.195 27.9591 285.237 30.0089C287.279 32.0586 288.426 34.8386 288.426 37.7374V176.262C288.426 177.698 288.145 179.119 287.597 180.445C287.05 181.771 286.248 182.976 285.237 183.991C284.226 185.006 283.026 185.811 281.705 186.36C280.384 186.91 278.968 187.192 277.538 187.192H223.911C222.481 187.192 221.065 186.91 219.744 186.36C218.423 185.811 217.223 185.006 216.212 183.991C215.201 182.976 214.399 181.771 213.852 180.445C213.305 179.119 213.023 177.698 213.023 176.262V37.7374C213.023 36.302 213.305 34.8808 213.852 33.5547C214.399 32.2287 215.201 31.0238 216.212 30.0089C217.223 28.9939 218.423 28.1889 219.744 27.6396C221.065 27.0903 222.481 26.8076 223.911 26.8076Z" fill="white"/>
<path d="M219.845 54.0452H281.604V159.955H219.845V54.0452Z" fill="#E6E6E6"/>
<path d="M302.346 76.5483C299.515 78.9165 305.177 86.2845 305.177 86.2845C305.177 86.2845 291.729 86.8108 292.791 86.8108C293.853 86.8108 294.737 75.6272 294.737 75.6272C294.737 75.6272 305.177 74.18 302.346 76.5483Z" fill="#FFB8B8"/>
<path d="M307.813 106.519L295.625 110.905L288.956 113.675C288.956 113.675 284.587 125.678 282.518 130.988C280.448 136.297 287.117 144.838 287.117 144.838C287.117 144.838 286.427 147.377 287.117 148.531C287.473 149.121 287.781 149.738 288.037 150.378C288.267 150.84 290.796 150.609 293.556 150.378C296.315 150.147 293.786 145.761 293.786 145.761C293.786 145.761 291.486 136.528 291.256 136.297C291.041 136.081 290.425 134.456 291.094 133.866C291.717 133.35 292.228 132.711 292.597 131.99C292.907 131.368 293.307 130.797 293.786 130.295C293.786 130.295 301.074 119.505 304.673 117.052C308.273 114.598 316.631 117.513 316.631 117.513C316.631 117.513 312.642 123.601 312.642 124.986C312.642 126.371 312.412 127.063 311.722 127.525C311.032 127.987 311.262 128.91 311.262 129.833C311.262 130.757 310.573 132.603 309.423 133.527C308.273 134.45 308.043 135.374 308.273 137.22C308.503 139.067 314.712 138.144 314.712 138.144L317.701 132.373C317.701 132.373 322.3 124.986 325.29 117.137C326.785 113.213 325.232 110.558 323.306 108.885C321.451 107.305 319.063 106.498 316.633 106.631L305.823 107.126L313.562 104.903L307.813 106.519Z" fill="#2F2E41"/>
<path d="M267.57 85.9738L254.462 79.9719C254.462 79.9719 249.863 72.1234 252.623 71.2C255.382 70.2767 257.682 78.1252 257.682 78.1252L267.11 79.9719L267.57 85.9738Z" fill="#FFB8B8"/>
<path d="M319.541 90.129C319.541 90.129 326.21 96.1308 326.44 96.8233C326.67 97.5158 330.809 99.3625 332.648 96.1308C334.488 92.899 328.509 93.1299 328.509 93.1299L324.37 87.8206L319.541 90.129Z" fill="#FFB8B8"/>
<path d="M326.29 86.5809L319.161 91.8902L307.433 87.735C309.613 94.586 307.905 101.842 315.065 106.044L287.93 115.278C290.331 105.571 286.539 97.5357 283.287 87.735C278.138 85.0709 271.678 85.7011 264.661 87.735V78.2706L293.176 79.8865L297.588 82.2676L302.834 80.8099C310.427 79.5741 319.915 82.2748 326.29 86.5809Z" fill="#6C63FF"/>
<path d="M308.733 136.989C308.043 137.451 306.893 141.837 306.663 143.453C306.433 145.069 308.503 145.761 309.653 145.992C310.802 146.223 310.572 146.915 311.262 147.608C311.952 148.3 314.482 148.531 317.931 147.839C321.381 147.146 316.321 142.76 315.862 142.529C315.402 142.299 314.022 136.989 314.022 136.989C314.022 136.989 309.423 136.528 308.733 136.989Z" fill="#2F2E41"/>
<path d="M289.646 149.686L287.806 154.533L286.067 157.152C285.593 157.851 285.274 158.643 285.13 159.475C284.986 160.308 285.021 161.161 285.232 161.979C285.525 163.061 286.132 164.084 287.347 164.459C290.336 165.383 292.176 159.612 292.176 159.612C292.176 159.612 293.785 156.38 294.935 153.379C296.085 150.378 294.015 148.762 294.015 148.762L289.646 149.686Z" fill="#2F2E41"/>
<path d="M298.466 79.4767C295.418 79.4767 292.948 76.9967 292.948 73.9375C292.948 70.8783 295.418 68.3983 298.466 68.3983C301.513 68.3983 303.984 70.8783 303.984 73.9375C303.984 76.9967 301.513 79.4767 298.466 79.4767Z" fill="#FFB8B8"/>
<path d="M292.211 72.5687C291.967 71.87 291.873 71.1277 291.934 70.39C291.996 69.6523 292.211 68.9358 292.567 68.2873C293.275 67.0255 294.64 65.8426 297.265 65.7759C302.99 65.6304 305.471 69.9639 305.149 71.2347C304.826 72.5054 303.672 75.5289 303.672 75.5289C303.672 75.5289 304.388 72.6176 302.956 72.3264C301.525 72.0353 295.978 70.8708 294.368 72.1809C293.909 72.5339 293.551 73.0027 293.331 73.5397C293.111 74.0767 293.037 74.6626 293.115 75.2378L292.211 72.5687Z" fill="#2F2E41"/>
<path d="M250.633 179.451C247.331 179.451 244.654 176.764 244.654 173.449C244.654 170.134 247.331 167.447 250.633 167.447C253.935 167.447 256.612 170.134 256.612 173.449C256.612 176.764 253.935 179.451 250.633 179.451Z" fill="#E6E6E6"/>
<g filter="url(#filter0_d)">
<path fill-rule="evenodd" clip-rule="evenodd" d="M251.56 93L235 99.3165V106.145H235V118.938C235 125.773 242.342 130.721 249.524 135.562C250.198 136.016 250.87 136.469 251.535 136.923C252.2 136.469 252.872 136.016 253.546 135.562C260.728 130.721 268.07 125.773 268.07 118.938V106.999H268.119V99.3165L251.56 93Z" fill="white"/>
</g>
<path d="M260.726 109.474C260.102 108.375 256.185 104.693 251.645 110.023C246.877 104.693 243.187 108.375 242.563 109.474C241.428 111.507 242.109 114.585 243.699 116.069L251.646 123.764L259.593 116.069C261.181 114.585 261.862 111.508 260.726 109.474Z" fill="#0024E1"/>
<g filter="url(#filter1_d)">
<path fill-rule="evenodd" clip-rule="evenodd" d="M299.001 47L294.001 48.9071V51.0532H294V54.9157C294 56.9792 296.217 58.4732 298.385 59.9346C298.589 60.0718 298.792 60.2086 298.992 60.3456C299.193 60.2086 299.396 60.0718 299.599 59.9346C301.768 58.4732 303.985 56.9792 303.985 54.9157V51.2265H304.001V48.9071L299.001 47Z" fill="#0024E1"/>
</g>
<path d="M301.767 52.0583C301.578 51.7264 300.396 50.6147 299.025 52.2242C297.586 50.6147 296.472 51.7264 296.283 52.0583C295.94 52.6722 296.146 53.6015 296.626 54.0495L299.026 56.3726L301.425 54.0495C301.904 53.6015 302.11 52.6725 301.767 52.0583H301.767Z" fill="#F4F8FB"/>
</g>
<g filter="url(#filter2_d)">
<path fill-rule="evenodd" clip-rule="evenodd" d="M205.078 40L196.001 43.4621V47.3582H196V54.3701C196 58.1161 200.024 60.8283 203.961 63.4814C204.33 63.7303 204.699 63.9787 205.063 64.2274C205.427 63.9787 205.796 63.7303 206.165 63.4814C210.102 60.8283 214.126 58.1161 214.126 54.3701V47.6727H214.154V43.4621L205.078 40Z" fill="#1C2468"/>
</g>
<path d="M210.1 49.1827C209.758 48.5801 207.611 46.5621 205.123 49.4838C202.51 46.5621 200.487 48.5801 200.145 49.1827C199.523 50.2971 199.896 51.9841 200.768 52.7974L205.123 57.0148L209.479 52.7974C210.35 51.9841 210.723 50.2977 210.1 49.1827H210.1Z" fill="#F4F8FB"/>
<g filter="url(#filter3_d)">
<path fill-rule="evenodd" clip-rule="evenodd" d="M44.0775 35L35.0013 38.4621V42.3582H35V49.3701C35 53.1161 39.0242 55.8283 42.9606 58.4814C43.3299 58.7303 43.6985 58.9787 44.0629 59.2274C44.4273 58.9787 44.7959 58.7303 45.1652 58.4814C49.1016 55.8283 53.1258 53.1161 53.1258 49.3701V42.6727H53.1538V38.4621L44.0775 35Z" fill="#1C2468"/>
</g>
<path d="M49.1004 44.1827C48.758 43.5801 46.6113 41.5621 44.1228 44.4838C41.5095 41.5621 39.4871 43.5801 39.1453 44.1827C38.5229 45.2971 38.8962 46.9841 39.7677 47.7974L44.1234 52.0148L48.4792 47.7974C49.3495 46.9841 49.7228 45.2977 49.1004 44.1827H49.1004Z" fill="#F4F8FB"/>
<path d="M171 63.5275H169.898V33.4234C169.898 28.8024 168.057 24.3707 164.781 21.1032C161.504 17.8357 157.06 16 152.427 16H88.4714C86.1771 16 83.9052 16.4507 81.7854 17.3263C79.6657 18.2019 77.7397 19.4853 76.1173 21.1032C74.4949 22.7211 73.208 24.6418 72.3299 26.7557C71.4519 28.8696 71 31.1353 71 33.4234V198.577C71 200.865 71.4519 203.13 72.3299 205.244C73.2079 207.358 74.4949 209.279 76.1172 210.897C77.7396 212.515 79.6656 213.798 81.7854 214.674C83.9051 215.549 86.177 216 88.4714 216H152.427C157.06 216 161.504 214.164 164.781 210.897C168.057 207.629 169.898 203.198 169.898 198.577V84.9561H171V63.5275Z" fill="#3F3D56"/>
<path d="M153.004 20H144.689C145.071 20.939 145.217 21.9577 145.114 22.9665C145.011 23.9753 144.661 24.9432 144.097 25.7848C143.532 26.6265 142.769 27.3161 141.876 27.793C140.982 28.2699 139.985 28.5194 138.973 28.5194H102.479C101.466 28.5194 100.469 28.2699 99.5757 27.793C98.6821 27.3161 97.9194 26.6265 97.3546 25.7848C96.7898 24.9432 96.4404 23.9753 96.3371 22.9665C96.2338 21.9577 96.3798 20.939 96.7621 20H88.9957C85.5491 20 82.2436 21.3713 79.8064 23.8123C77.3692 26.2533 76 29.564 76 33.0161V197.984C76 199.693 76.3361 201.386 76.9892 202.965C77.6423 204.544 78.5996 205.979 79.8064 207.188C81.0131 208.396 82.4458 209.355 84.0225 210.009C85.5992 210.663 87.2891 211 88.9957 211H153.004C154.711 211 156.401 210.663 157.978 210.009C159.554 209.355 160.987 208.396 162.194 207.188C163.4 205.979 164.358 204.544 165.011 202.965C165.664 201.386 166 199.693 166 197.984V33.0161C166 31.3068 165.664 29.6142 165.011 28.035C164.358 26.4559 163.4 25.021 162.194 23.8123C160.987 22.6037 159.554 21.6449 157.978 20.9908C156.401 20.3367 154.711 20 153.004 20Z" fill="white"/>
<path d="M121 51H84V115H121V51Z" fill="#E6E6E6"/>
<path d="M158 120H127V192H158V120Z" fill="#E6E6E6"/>
<path d="M158 51H127V68H158V51Z" fill="#E6E6E6"/>
<path d="M158 73H127V92H158V73Z" fill="#E6E6E6"/>
<path d="M158 97H127V115H158V97Z" fill="#E6E6E6"/>
<path d="M115.653 123.921L78.8616 120L76 146.848L112.792 150.769L115.653 123.921Z" fill="#6C63FF"/>
<path d="M121 153H84V192H121V153Z" fill="#E6E6E6"/>
<path d="M74.0143 119.624L79.3605 122.337C81.2687 123.305 83.1103 123.14 83.8155 121.12C83.9833 120.64 84.0453 120.129 83.9971 119.622C83.949 119.115 83.7918 118.625 83.5365 118.185C83.2811 117.745 82.9336 117.365 82.5177 117.071C82.1017 116.777 81.6272 116.577 81.1266 116.483L76.0455 115.536L54.2842 108.32L41.1021 98.9795L36.2698 106.673L51.5015 114.887L74.0143 119.624Z" fill="#FFB8B8"/>
<path d="M49.0577 209.676L53.148 208.995L52.6934 201.274H48.376L49.0577 209.676Z" fill="#FFB8B8"/>
<path d="M9.3584 202.135L13.317 203.369L16.3936 196.272L12.5392 194.327L9.3584 202.135Z" fill="#FFB8B8"/>
<path d="M28.1738 93.9384C35.9621 90.628 45.6625 92.7254 55.1359 94.1811C55.2241 92.4182 56.2926 90.2727 55.1733 89.0429C53.8134 87.5487 53.9386 85.9787 54.7569 84.3997C56.8495 80.362 53.8514 76.0656 50.8243 72.4932C50.142 71.6898 49.2797 71.0586 48.3075 70.6507C47.3352 70.2429 46.2804 70.0701 45.2287 70.1462L39.6213 70.5464C38.2567 70.6438 36.9545 71.1553 35.8889 72.0126C34.8232 72.8698 34.0449 74.0318 33.6582 75.3431C32.3192 77.1629 31.6026 78.9776 32.0538 80.783C30.0482 82.1526 29.7113 83.8059 30.6125 85.6697C31.3767 86.8432 31.3686 87.9855 30.5777 89.0962C29.5392 90.5123 28.7437 92.0912 28.224 93.7683L28.1738 93.9384Z" fill="#2F2E41"/>
<path d="M11.563 195.369L16.5623 197.413L40.4227 166.075L47.9217 202.863L52.921 201.955C56.128 170.238 58.743 137.887 55.5343 122.587L37.0141 121.792L28.6061 148.589L24.5158 166.756L11.563 195.369Z" fill="#2F2E41"/>
<path d="M49.283 215.92C50.0309 216.081 50.8104 215.998 51.5079 215.684L53.9378 214.591C55.9752 214.487 57.3625 214.892 58.4969 213.413C58.8169 212.99 59.0179 212.489 59.0789 211.963C59.14 211.436 59.0588 210.903 58.844 210.418C58.631 209.931 58.2924 209.51 57.8627 209.198C57.4331 208.886 56.928 208.693 56.3993 208.64L53.0619 206.539L52.8867 208.114C51.3613 208.978 49.5504 208.605 47.6314 207.764L46.5839 211.428C46.4488 211.9 46.4123 212.395 46.4766 212.882C46.541 213.369 46.7047 213.838 46.9578 214.259C47.2109 214.681 47.5479 215.045 47.9478 215.331C48.3478 215.617 48.8023 215.817 49.283 215.92Z" fill="#2F2E41"/>
<path d="M7.73877 208.405C8.39409 208.799 9.15828 208.974 9.91991 208.903L12.5732 208.658C14.5341 209.221 15.7145 210.055 17.2681 209.023C17.7082 208.727 18.061 208.319 18.2899 207.841C18.5187 207.362 18.6153 206.832 18.5697 206.303C18.5263 205.774 18.3428 205.266 18.0379 204.831C17.7331 204.396 17.3179 204.05 16.8351 203.829L14.3614 200.758L13.6838 202.191C11.9605 202.513 10.3689 201.572 8.82705 200.155L6.6458 203.28C6.36454 203.683 6.16914 204.139 6.0717 204.621C5.97425 205.103 5.97684 205.599 6.07932 206.079C6.1818 206.56 6.38198 207.014 6.66743 207.414C6.95289 207.814 7.31754 208.152 7.73877 208.405Z" fill="#2F2E41"/>
<path d="M43.8311 89.5453C48.3492 89.5453 52.0118 85.8851 52.0118 81.3701C52.0118 76.855 48.3492 73.1948 43.8311 73.1948C39.313 73.1948 35.6504 76.855 35.6504 81.3701C35.6504 85.8851 39.313 89.5453 43.8311 89.5453Z" fill="#FFB8B8"/>
<path d="M33.8325 98.6289L44.513 96.3579L45.8765 87.5015L38.3774 85.9119L33.8325 98.6289Z" fill="#FFB8B8"/>
<path d="M36.7868 122.928H55.8751L51.5725 112.133C51.8852 108.418 50.3099 105.686 48.0552 103.308L45.1947 96.1309C40.5729 93.0911 37.0886 93.3182 33.3782 97.2664C28.9789 103.491 32.024 112.848 36.7868 122.928Z" fill="#6C63FF"/>
<path d="M45.4219 145.864L45.9648 151.831C46.1586 153.961 47.2778 155.432 49.3641 154.955C49.8606 154.842 50.3267 154.623 50.7305 154.312C51.1343 154.002 51.4663 153.609 51.7037 153.158C51.9412 152.708 52.0785 152.212 52.1063 151.704C52.134 151.196 52.0516 150.688 51.8646 150.214L49.9668 145.409L44.513 123.155L45.4219 107.031H36.3323L37.4685 124.29L45.4219 145.864Z" fill="#FFB8B8"/>
<path d="M31.0886 92.2117C31.9682 84.2476 34.2219 77.4659 38.1327 72.1101L38.7182 72.0904V71.9457L40.6193 72.0265L45.9056 71.849C45.7818 71.9776 45.6638 72.1069 45.5442 72.236L49.3986 72.3999L53.0345 79.8939C49.5391 78.8827 45.8603 78.674 42.2728 79.2832C41.8265 79.3505 41.4058 79.5339 41.0527 79.8149C40.6997 80.096 40.4269 80.4649 40.2616 80.8847C40.1985 81.0162 40.1662 81.1604 40.1674 81.3063C40.1685 81.4523 40.2031 81.596 40.2684 81.7265C41.7964 84.3899 41.7202 87.315 40.1672 90.3861C39.8282 91.0565 40.4792 91.8635 40.6832 92.6032L31.0886 92.2117Z" fill="#2F2E41"/>
<path d="M35.6504 107.485H46.1035L45.3707 100.671C45.3226 99.4923 44.8352 98.3743 44.0044 97.5364C43.1736 96.6985 42.0594 96.2013 40.8805 96.1424C40.2558 96.1112 39.6311 96.2041 39.0425 96.4157C38.454 96.6274 37.9133 96.9536 37.4518 97.3754C36.9902 97.7973 36.6169 98.3064 36.3536 98.8734C36.0902 99.4403 35.942 100.054 35.9175 100.678L35.6504 107.485Z" fill="#6C63FF"/>
<g filter="url(#filter4_d)">
<path fill-rule="evenodd" clip-rule="evenodd" d="M121.247 37L93.0004 47.7746V59.4228H93V81.2451C93 92.9032 105.524 101.344 117.775 109.601C118.924 110.376 120.071 111.149 121.205 111.923C122.339 111.149 123.486 110.376 124.636 109.601C136.887 101.344 149.411 92.9032 149.411 81.2451V60.8789H149.494V47.7746L121.247 37Z" fill="#3341C0"/>
</g>
<path d="M136.884 65.1012C135.818 63.2257 129.137 56.9452 121.392 66.0381C113.259 56.9452 106.965 63.2257 105.901 65.1012C103.964 68.5692 105.126 73.8197 107.839 76.3508L121.394 89.476L134.95 76.3508C137.659 73.8197 138.821 68.571 136.884 65.1012H136.884Z" fill="white"/>
<path d="M194.432 205.392H191.247L191.815 187.759L200.234 188.214L194.432 205.392Z" fill="#FFB8B8"/>
<path d="M194.867 215.525C193.905 215.964 193.1 212.409 192.289 213.206C190.02 215.435 187.677 215.921 184.649 214.947L184.579 214.935C184.396 214.877 184.227 214.781 184.082 214.656C183.937 214.53 183.82 214.376 183.736 214.203C183.652 214.03 183.605 213.842 183.596 213.65C183.587 213.459 183.617 213.267 183.685 213.087C183.765 212.872 183.897 212.68 184.068 212.527C184.24 212.374 184.446 212.265 184.669 212.21L187.081 211.607L190.869 204.945L194.736 204.684C195.598 205.783 196.2 207.063 196.496 208.428C196.792 209.793 196.774 211.208 196.445 212.565C196.094 213.997 195.552 215.212 194.867 215.525Z" fill="#2F2E41"/>
<path d="M224.693 203.061L221.731 204.232L215.775 187.626L223.77 184.953L224.693 203.061Z" fill="#FFB8B8"/>
<path d="M228.824 212.324C228.092 213.086 226.035 210.076 225.574 211.116C224.285 214.023 222.284 215.336 219.11 215.545L219.041 215.56C218.849 215.572 218.657 215.546 218.476 215.482C218.295 215.418 218.129 215.318 217.988 215.188C217.846 215.059 217.733 214.901 217.654 214.726C217.576 214.551 217.533 214.362 217.53 214.17C217.526 213.94 217.577 213.713 217.681 213.508C217.784 213.303 217.935 213.126 218.122 212.992L220.143 211.544L221.216 203.956L224.715 202.291C225.921 202.996 226.952 203.965 227.729 205.126C228.506 206.286 229.01 207.608 229.203 208.991C229.404 210.452 229.347 211.781 228.824 212.324Z" fill="#2F2E41"/>
<path d="M215.023 117.918L210.133 119.176C209.763 119.271 209.376 119.282 209.001 119.208C208.627 119.134 208.273 118.977 207.967 118.749C207.66 118.521 207.409 118.227 207.231 117.889C207.053 117.551 206.953 117.177 206.938 116.795C206.925 116.444 206.984 116.094 207.111 115.767C207.239 115.439 207.433 115.142 207.68 114.893C207.928 114.643 208.224 114.448 208.551 114.318C208.877 114.189 209.227 114.127 209.578 114.139L213.886 114.278L222.186 111.255L214.341 105.405L215.251 97.2139L230.54 109.488C230.813 109.707 231.037 109.98 231.2 110.29C231.362 110.599 231.459 110.939 231.484 111.288C231.525 111.874 231.363 112.457 231.023 112.937C230.684 113.416 230.188 113.763 229.621 113.919C226.039 116.842 220.82 117.738 215.023 117.918Z" fill="#FFB8B8"/>
<path d="M203.875 87.203C208.273 87.203 211.838 83.6378 211.838 79.2399C211.838 74.8419 208.273 71.2767 203.875 71.2767C199.477 71.2767 195.912 74.8419 195.912 79.2399C195.912 83.6378 199.477 87.203 203.875 87.203Z" fill="#FFB8B8"/>
<path d="M213.658 90.1608L202.965 94.4837C203.279 91.1033 202.393 87.7204 200.462 84.9279L209.335 82.8802C209.22 85.5903 210.685 88.0127 213.658 90.1608Z" fill="#FFB8B8"/>
<path d="M215.592 108.704C206.972 109.393 202.257 108.249 195.002 104.039L197.732 97.6689C197.595 96.7097 197.725 95.7313 198.108 94.8412C198.491 93.9512 199.112 93.1839 199.902 92.6239L202.737 90.6159L211.383 88.1132L211.771 88.1325C212.921 88.1901 214.011 88.6649 214.836 89.4682C215.661 90.2715 216.165 91.348 216.253 92.4962C218.131 98.1092 218.143 103.535 215.592 108.704Z" fill="#6C63FF"/>
<path d="M213.886 122.013L195.457 119.966L194.092 114.05C191.066 109.482 192.386 105.299 195.912 101.309C202.338 105.433 208.302 107.215 216.843 105.86C214.572 111.384 212.474 116.813 213.886 122.013Z" fill="#2F2E41"/>
<path d="M228.219 190.951L213.544 190.155L208.767 152.159L204.899 189.927L187.494 189.131C192.803 164.302 196.491 140.731 195.457 119.056L213.658 120.648C219.827 127.152 222.89 137.535 224.693 149.884C226.496 162.234 227.949 176.55 228.219 190.951Z" fill="#2F2E41"/>
<path d="M212.641 71.9906C214.153 71.9906 215.378 70.7651 215.378 69.2535C215.378 67.7418 214.153 66.5164 212.641 66.5164C211.129 66.5164 209.904 67.7418 209.904 69.2535C209.904 70.7651 211.129 71.9906 212.641 71.9906Z" fill="#2F2E41"/>
<path d="M209.821 68.5835C209.866 67.889 210.174 67.2378 210.682 66.7625C211.19 66.2872 211.861 66.0236 212.557 66.0252C212.5 66.0181 212.444 66.0093 212.386 66.0056C211.662 65.9591 210.949 66.2022 210.403 66.6815C209.858 67.1608 209.526 67.8371 209.479 68.5615C209.433 69.286 209.676 69.9992 210.155 70.5444C210.634 71.0896 211.311 71.422 212.035 71.4686C212.093 71.4723 212.149 71.4708 212.206 71.471C211.516 71.3835 210.885 71.0362 210.442 70.4997C209.998 69.9632 209.776 69.278 209.821 68.5835Z" fill="#2F2E41"/>
<path d="M209.805 69.7523C207.364 67.7272 200.362 70.3009 199.911 71.6624C196.61 72.1123 194.11 74.0382 194.11 77.4627V77.4627C196.073 78.2667 198.305 78.1676 200.718 77.4627C204.564 80.5971 204.828 84.5375 202.489 89.0633L205.366 89.1208L208.933 83.9075L209.104 89.1956L215.7 89.0633V81.4851C215.722 78.9654 215.142 76.477 214.009 74.2263C212.981 72.2293 211.385 71.0632 209.805 69.7523Z" fill="#2F2E41"/>
<path d="M203.663 83.1414C204.386 83.1414 204.972 82.3209 204.972 81.3089C204.972 80.2969 204.386 79.4764 203.663 79.4764C202.94 79.4764 202.354 80.2969 202.354 81.3089C202.354 82.3209 202.94 83.1414 203.663 83.1414Z" fill="#FFB8B8"/>
<path d="M154.384 130.791C154.468 130.879 154.514 130.997 154.511 131.119C154.509 131.241 154.458 131.357 154.37 131.441L141.092 144.158C141.004 144.242 140.886 144.288 140.764 144.285C140.643 144.283 140.527 144.232 140.442 144.144L131.318 134.617C131.234 134.529 131.188 134.411 131.19 134.289C131.193 134.168 131.244 134.052 131.332 133.967L144.609 121.251C144.697 121.166 144.815 121.12 144.937 121.123C145.059 121.126 145.175 121.177 145.259 121.265L154.384 130.791Z" fill="#6C63FF"/>
<path d="M160.558 127.377L155.29 133.04C154.951 133.405 154.535 133.689 154.072 133.873C153.609 134.056 153.112 134.135 152.615 134.102C152.118 134.069 151.635 133.926 151.2 133.684C150.765 133.441 150.39 133.104 150.102 132.698C148.953 131.082 150.308 129.723 152.03 128.74L158.59 124.994C173.338 117.092 185.601 107.027 196.585 96.1918C196.956 95.8233 197.399 95.5338 197.885 95.3409C198.371 95.1479 198.892 95.0556 199.415 95.0693C199.938 95.083 200.453 95.2026 200.928 95.4208C201.404 95.639 201.83 95.9513 202.182 96.3388C202.524 96.7176 202.788 97.1603 202.959 97.6414C203.129 98.1226 203.203 98.6327 203.176 99.1424C203.148 99.6522 203.02 100.151 202.799 100.612C202.578 101.072 202.268 101.483 201.887 101.823C188.364 113.894 174.656 123.365 160.558 127.377Z" fill="#FFB8B8"/>
<defs>
<filter id="filter0_d" x="200" y="58" width="133.119" height="143.923" filterUnits="userSpaceOnUse" color-interpolation-filters="sRGB">
<feFlood flood-opacity="0" result="BackgroundImageFix"/>
<feColorMatrix in="SourceAlpha" type="matrix" values="0 0 0 0 0 0 0 0 0 0 0 0 0 0 0 0 0 0 127 0"/>
<feOffset dx="15" dy="15"/>
<feGaussianBlur stdDeviation="25"/>
<feColorMatrix type="matrix" values="0 0 0 0 0 0 0 0 0 0 0 0 0 0 0 0 0 0 0.25 0"/>
<feBlend mode="normal" in2="BackgroundImageFix" result="effect1_dropShadow"/>
<feBlend mode="normal" in="SourceGraphic" in2="effect1_dropShadow" result="shape"/>
</filter>
<filter id="filter1_d" x="259" y="12" width="110.001" height="113.346" filterUnits="userSpaceOnUse" color-interpolation-filters="sRGB">
<feFlood flood-opacity="0" result="BackgroundImageFix"/>
<feColorMatrix in="SourceAlpha" type="matrix" values="0 0 0 0 0 0 0 0 0 0 0 0 0 0 0 0 0 0 127 0"/>
<feOffset dx="15" dy="15"/>
<feGaussianBlur stdDeviation="25"/>
<feColorMatrix type="matrix" values="0 0 0 0 0 0 0 0 0 0 0 0 0 0 0 0 0 0 0.25 0"/>
<feBlend mode="normal" in2="BackgroundImageFix" result="effect1_dropShadow"/>
<feBlend mode="normal" in="SourceGraphic" in2="effect1_dropShadow" result="shape"/>
</filter>
<filter id="filter2_d" x="161" y="5" width="118.154" height="124.227" filterUnits="userSpaceOnUse" color-interpolation-filters="sRGB">
<feFlood flood-opacity="0" result="BackgroundImageFix"/>
<feColorMatrix in="SourceAlpha" type="matrix" values="0 0 0 0 0 0 0 0 0 0 0 0 0 0 0 0 0 0 127 0"/>
<feOffset dx="15" dy="15"/>
<feGaussianBlur stdDeviation="25"/>
<feColorMatrix type="matrix" values="0 0 0 0 0 0 0 0 0 0 0 0 0 0 0 0 0 0 0.25 0"/>
<feBlend mode="normal" in2="BackgroundImageFix" result="effect1_dropShadow"/>
<feBlend mode="normal" in="SourceGraphic" in2="effect1_dropShadow" result="shape"/>
</filter>
<filter id="filter3_d" x="0" y="0" width="118.154" height="124.227" filterUnits="userSpaceOnUse" color-interpolation-filters="sRGB">
<feFlood flood-opacity="0" result="BackgroundImageFix"/>
<feColorMatrix in="SourceAlpha" type="matrix" values="0 0 0 0 0 0 0 0 0 0 0 0 0 0 0 0 0 0 127 0"/>
<feOffset dx="15" dy="15"/>
<feGaussianBlur stdDeviation="25"/>
<feColorMatrix type="matrix" values="0 0 0 0 0 0 0 0 0 0 0 0 0 0 0 0 0 0 0.25 0"/>
<feBlend mode="normal" in2="BackgroundImageFix" result="effect1_dropShadow"/>
<feBlend mode="normal" in="SourceGraphic" in2="effect1_dropShadow" result="shape"/>
</filter>
<filter id="filter4_d" x="58" y="2" width="156.494" height="174.923" filterUnits="userSpaceOnUse" color-interpolation-filters="sRGB">
<feFlood flood-opacity="0" result="BackgroundImageFix"/>
<feColorMatrix in="SourceAlpha" type="matrix" values="0 0 0 0 0 0 0 0 0 0 0 0 0 0 0 0 0 0 127 0"/>
<feOffset dx="15" dy="15"/>
<feGaussianBlur stdDeviation="25"/>
<feColorMatrix type="matrix" values="0 0 0 0 0 0 0 0 0 0 0 0 0 0 0 0 0 0 0.25 0"/>
<feBlend mode="normal" in2="BackgroundImageFix" result="effect1_dropShadow"/>
<feBlend mode="normal" in="SourceGraphic" in2="effect1_dropShadow" result="shape"/>
</filter>
<clipPath id="clip0">
<rect width="124" height="168" transform="matrix(-1 0 0 1 333 23)" fill="white"/>
</clipPath>
</defs>
</svg>
