<svg width="291" height="292" viewBox="0 0 291 292" fill="none" xmlns="http://www.w3.org/2000/svg">
<path fill-rule="evenodd" clip-rule="evenodd" d="M289.768 195.333C289.768 195.333 287.216 159.483 258.848 137.668C258.848 137.668 255.724 150.079 262.137 160.361L267.277 157.807L262.813 164.208C262.813 164.208 266.502 176.577 274.973 183.634L277.626 177.274V185.986L289.768 195.333Z" stroke="white"/>
<path fill-rule="evenodd" clip-rule="evenodd" d="M289.768 207.976C289.768 207.976 281.582 159.932 218.38 169.037C218.38 169.037 223.002 179.679 235.707 181.576L239.89 178.32L237.505 182.073C237.505 182.073 252.43 186.564 261.48 194.885L264.543 189.668L263.949 196.254L270.714 200.777L273.5 197.207L272.928 201.588L289.768 207.976Z" fill="url(#paint0_linear)"/>
<rect x="147.369" width="142.946" height="290.82" rx="25.8" fill="black"/>
<rect x="154.667" y="7.9093" width="128.263" height="274.828" rx="23.22" fill="#E5F8F8"/>
<mask id="mask0" mask-type="alpha" maskUnits="userSpaceOnUse" x="154" y="7" width="129" height="276">
<rect x="154.667" y="7.9093" width="128.263" height="274.828" rx="23.22" fill="white"/>
</mask>
<g mask="url(#mask0)">
<path opacity="0.1" fill-rule="evenodd" clip-rule="evenodd" d="M279.203 10.9513L155.885 282.737L147.369 7.90921L175.374 -12.4622L286.502 -0.000130653L279.203 10.9513Z" fill="white"/>
</g>
<path d="M185.082 4.86719H252.601V9.8354C252.601 13.8118 249.378 17.0354 245.401 17.0354H192.282C188.306 17.0354 185.082 13.8118 185.082 9.8354V4.86719Z" fill="black"/>
<path d="M210.339 77.0614L196.055 62.5968L200.816 57.7764L210.339 67.4205L243.667 33.6676L248.427 38.4913L210.339 77.0614Z" fill="#1C2468"/>
<path fill-rule="evenodd" clip-rule="evenodd" d="M111.685 63L47.0001 87.6735V115.461H47V165.434C47 192.131 75.6797 211.46 103.733 230.368C106.366 232.142 108.992 233.913 111.589 235.685C114.186 233.913 116.813 232.142 119.445 230.368C147.499 211.46 176.179 192.131 176.179 165.434V117.682H176.369V87.6735L111.685 63Z" fill="#1C2468"/>
<path d="M142.135 125.557C140.041 121.261 126.908 106.873 111.684 127.703C95.6969 106.873 83.3245 121.261 81.2333 125.557C77.4255 133.502 79.7095 145.53 85.041 151.328L111.688 181.396L138.335 151.328C143.659 145.53 145.943 133.506 142.136 125.557H142.135Z" fill="white"/>
<path fill-rule="evenodd" clip-rule="evenodd" d="M227.383 143.6C229.705 142.015 231.579 139.812 232.137 136.93C233.744 128.627 221.819 127.354 218.491 130.87C215.163 134.386 212.633 144.888 215.313 146.394C216.382 146.995 219.018 146.932 221.904 146.112L217.409 156.642L226.628 159.113L227.383 143.6Z" fill="#784931"/>
<path fill-rule="evenodd" clip-rule="evenodd" d="M223.336 127.367C224.697 127.323 226.561 127.684 227.307 127.978C227.148 126.821 227.284 125.617 227.728 124.528C228.159 123.469 228.903 122.669 229.621 121.814C229.952 121.419 230.311 121.035 230.759 120.786C231.216 120.532 231.736 120.423 232.247 120.442C232.77 120.46 233.282 120.608 233.747 120.842C233.953 120.946 234.122 121.098 234.322 121.21C234.525 121.325 234.668 121.217 234.864 121.123C235.335 120.897 235.94 120.885 236.44 120.957C237.002 121.037 237.544 121.27 238.015 121.586C238.474 121.894 238.884 122.304 239.14 122.81C239.253 123.035 239.345 123.281 239.38 123.535C239.394 123.639 239.386 123.697 239.471 123.756C239.55 123.811 239.652 123.84 239.734 123.894C240.526 124.419 241.091 125.285 241.267 126.25C241.37 126.812 241.246 127.722 240.951 128.699C240.657 129.676 239.07 132.006 237.979 132.719C237.006 133.355 235.756 133.613 234.628 133.57C235.12 134.558 235.322 135.683 235.397 136.792C235.478 137.996 235.405 139.206 235.178 140.397C234.962 141.529 234.655 142.705 234.102 143.721C233.584 144.671 232.835 145.364 231.817 145.657C231.35 145.792 230.869 145.858 230.39 145.908C229.918 145.957 229.446 146.001 228.972 145.973C228.076 145.919 227.106 145.627 226.631 144.782C226.46 144.477 226.282 144.104 226.189 143.763C226.156 143.641 226.137 143.561 226.24 143.478C226.363 143.378 226.535 143.321 226.676 143.255C227.484 142.878 228.09 142.248 228.429 141.396C228.772 140.532 228.839 139.316 228.068 138.693C227.117 137.923 225.78 138.156 224.683 138.413C224.657 136.876 224.164 135.367 223.026 134.361C221.767 133.247 220.123 132.716 218.797 131.695C218.451 131.428 218.104 131.139 217.906 130.732C217.823 130.562 217.731 130.345 217.732 130.15C217.733 129.894 217.943 129.735 218.113 129.58C219.017 128.761 221.974 127.41 223.336 127.367Z" fill="#191847"/>
<path fill-rule="evenodd" clip-rule="evenodd" d="M224.529 191.216L210.11 241.619L199.59 278.769H191.917L203.096 191.216H224.529Z" fill="#191847"/>
<path fill-rule="evenodd" clip-rule="evenodd" d="M228.384 191.216C228.718 217.195 229.855 231.364 230.205 233.724C230.555 236.084 235.85 251.099 246.089 278.769H238.14C225.105 252.224 217.829 237.21 216.311 233.724C214.793 230.238 210.108 216.069 203.052 191.216H228.384Z" fill="#2F3676"/>
<path fill-rule="evenodd" clip-rule="evenodd" d="M246.801 285.961L246.403 277.609H238.051C234.091 280.393 228.921 282.647 222.541 284.37V285.961H237.653L242.824 285.166V285.961H246.801Z" fill="#191847"/>
<path fill-rule="evenodd" clip-rule="evenodd" d="M200.666 285.961L200.268 277.609H191.917C187.956 280.393 182.786 282.647 176.406 284.37V285.961H191.519L196.689 285.166V285.961H200.666Z" fill="#191847"/>
<path fill-rule="evenodd" clip-rule="evenodd" d="M192.112 180.717L178.53 188.606C175.012 189.164 172.034 190.005 169.595 191.131C169.001 191.565 168.241 192.492 170.508 192.557C172.775 192.622 175.157 192.792 175.388 193.588C175.618 194.384 174.161 195.154 174.681 196.25C175.027 196.981 177.183 195.467 181.149 191.71L194.182 187.871L192.112 180.717ZM246.409 185.841L239.295 185.62C243.907 203.009 246.4 212.215 246.774 213.237C247.616 215.538 245.552 218.924 244.656 220.751C247.325 222.054 247.189 217.573 250.554 219.278C253.625 220.835 255.91 223.537 259.591 221.451C260.044 221.195 260.564 220.187 259.418 219.344C256.562 217.245 252.468 213.602 251.938 212.432C251.216 210.837 249.372 201.973 246.409 185.841Z" fill="#B28B67"/>
<path fill-rule="evenodd" clip-rule="evenodd" d="M222.378 152.589L218.329 150.416C209.942 163.882 198.773 176.373 182.155 185.656L184.661 192.458C198.75 187.224 211.862 183.541 218.748 173.175C221.058 169.696 221.717 157.119 222.378 152.589Z" fill="#C5CFD6"/>
<path fill-rule="evenodd" clip-rule="evenodd" d="M229.946 195.984C217.404 195.112 207.712 193.403 200.871 190.857C200.023 190.542 200.142 189.058 200.723 188.139C209.769 173.83 216.48 161.137 218.369 150.424C219.427 151.211 221.443 151.656 224.417 151.76C230.27 164.176 231.621 177.475 229.946 195.984Z" fill="#323337"/>
<path fill-rule="evenodd" clip-rule="evenodd" d="M226.521 151.176L223.27 150.603C221.732 154.899 208.77 214.456 197.941 232.777L237.814 239.808C240.119 221.682 237.107 198.888 233.385 179.603C238.512 186.242 242.174 196.605 244.371 210.692L252.176 210.101C250.821 185.311 242.49 165.796 227.182 151.558C227.159 151.465 227.137 151.373 227.115 151.281L226.827 151.23C226.734 151.144 226.639 151.058 226.545 150.972L226.521 151.176Z" fill="#DDE3E9"/>
<g style="mix-blend-mode:multiply">
<path d="M176.593 283.467C176.593 287.753 137.178 288.21 88.6666 291.227C40.2005 294.243 0.739746 287.753 0.739746 283.467C0.739746 279.181 40.3823 270.557 88.6666 275.707C137.178 280.88 176.593 279.181 176.593 283.467Z" fill="#E6E6E6"/>
</g>
<defs>
<linearGradient id="paint0_linear" x1="214.103" y1="167.889" x2="214.103" y2="212.779" gradientUnits="userSpaceOnUse">
<stop stop-color="#BFBDFF"/>
<stop offset="1" stop-color="#EFEDFF"/>
</linearGradient>
</defs>
</svg>
