<svg width="325" height="247" viewBox="0 0 325 247" fill="none" xmlns="http://www.w3.org/2000/svg">
<path d="M324.881 144.675C324.878 139.342 323.685 134.076 321.388 129.26C319.091 124.443 315.747 120.196 311.6 116.826C307.452 113.457 302.604 111.048 297.408 109.776C292.211 108.504 286.795 108.4 281.553 109.472C276.311 110.543 271.373 112.763 267.099 115.971C262.824 119.179 259.319 123.295 256.837 128.02C254.355 132.745 252.959 137.96 252.75 143.289C252.541 148.618 253.524 153.926 255.628 158.83C255.593 158.791 255.556 158.753 255.521 158.713C257.124 162.436 259.345 165.862 262.092 168.847C262.101 168.856 262.109 168.865 262.117 168.874C262.339 169.114 262.562 169.354 262.79 169.588C266.087 173.015 270.034 175.756 274.402 177.65C278.771 179.544 283.473 180.555 288.237 180.623L287.018 246.614H290.784L290.022 203.059L295.47 200.2L294.639 198.627L289.987 201.068L289.629 180.62C299.052 180.404 308.016 176.523 314.604 169.805C321.192 163.088 324.881 154.068 324.881 144.675Z" fill="#E6E6E6"/>
<path d="M217.796 127.15C217.793 120.901 216.395 114.73 213.703 109.085C211.011 103.441 207.093 98.4635 202.232 94.5144C197.371 90.5653 191.69 87.7432 185.6 86.2525C179.51 84.7618 173.163 84.6399 167.02 85.8956C160.876 87.1512 155.09 89.7531 150.08 93.5126C145.071 97.2721 140.963 102.095 138.055 107.632C135.146 113.169 133.51 119.282 133.265 125.526C133.02 131.771 134.172 137.992 136.638 143.739C136.597 143.693 136.554 143.648 136.513 143.602C138.391 147.965 140.994 151.979 144.214 155.478C144.223 155.488 144.233 155.499 144.243 155.509C144.502 155.791 144.764 156.072 145.031 156.347C148.895 160.363 153.521 163.574 158.64 165.794C163.759 168.014 169.27 169.198 174.853 169.278L173.424 246.614H177.838L176.945 195.571L183.33 192.221L182.356 190.378L176.904 193.238L176.484 169.274C187.527 169.022 198.033 164.473 205.753 156.601C213.474 148.729 217.796 138.158 217.796 127.15Z" fill="#E6E6E6"/>
<path d="M96.35 110.667C96.3462 103.555 94.7549 96.5326 91.6915 90.1092C88.6281 83.6857 84.1692 78.0218 78.6379 73.5278C73.1067 69.0338 66.6416 65.8223 59.711 64.1259C52.7804 62.4296 45.558 62.2908 38.567 63.7198C31.576 65.1487 24.9914 68.1095 19.2905 72.3877C13.5896 76.666 8.91496 82.1544 5.60541 88.4554C2.29585 94.7565 0.434218 101.712 0.155393 108.819C-0.123432 115.925 1.18753 123.005 3.9933 129.544C3.94625 129.492 3.89764 129.441 3.85081 129.389C5.98797 134.353 8.95069 138.922 12.6141 142.903C12.625 142.915 12.6363 142.927 12.6472 142.939C12.9428 143.26 13.2401 143.579 13.5443 143.892C17.9412 148.462 23.2054 152.117 29.0311 154.643C34.8569 157.169 41.1281 158.517 47.4808 158.608L45.855 246.614H50.878L49.8614 188.529L57.1275 184.716L56.0191 182.618L49.815 185.873L49.3377 158.603C61.9042 158.316 73.859 153.14 82.6449 144.181C91.4307 135.223 96.3498 123.193 96.35 110.667V110.667Z" fill="#E6E6E6"/>
<path d="M276.94 62.7164C294.318 62.7164 308.406 48.6769 308.406 31.3582C308.406 14.0396 294.318 0 276.94 0C259.562 0 245.474 14.0396 245.474 31.3582C245.474 48.6769 259.562 62.7164 276.94 62.7164Z" fill="#20008C"/>
<path d="M89.8724 131.278C124.702 131.278 152.937 103.14 152.937 68.4299C152.937 33.72 124.702 5.58209 89.8724 5.58209C55.0428 5.58209 26.8079 33.72 26.8079 68.4299C26.8079 103.14 55.0428 131.278 89.8724 131.278Z" fill="#6C63FF"/>
<path opacity="0.2" d="M43.3076 26.4525C37.4251 40.1654 36.6271 55.5161 41.0562 69.7614C45.4853 84.0067 54.8529 96.2184 67.4851 104.214C80.1172 112.21 95.1908 115.469 110.012 113.409C124.834 111.349 138.437 104.104 148.392 92.9687C144.798 101.347 139.42 108.846 132.63 114.947C125.839 121.048 117.799 125.605 109.066 128.302C100.333 130.998 91.1157 131.771 82.0533 130.565C72.9909 129.36 64.2999 126.206 56.5824 121.32C48.8648 116.435 42.3053 109.937 37.3582 102.274C32.4111 94.6121 29.1948 85.9695 27.9321 76.9456C26.6693 67.9216 27.3904 58.7319 30.0453 50.0132C32.7002 41.2945 37.2255 33.2552 43.3076 26.4525Z" fill="black"/>
<path d="M90.0454 68.4299H90.2189L93.3375 246.614H86.7537L90.0454 68.4299Z" fill="#3F3D56"/>
<path d="M101.529 165.486L100.076 162.736L89.6509 168.205L91.1037 170.955L101.529 165.486Z" fill="#3F3D56"/>
<path d="M186.332 244.947C186.332 244.947 186.559 240.196 191.224 240.748Z" fill="#3F3D56"/>
<path d="M185.014 240.426C186.303 240.426 187.348 239.384 187.348 238.099C187.348 236.814 186.303 235.773 185.014 235.773C183.724 235.773 182.679 236.814 182.679 238.099C182.679 239.384 183.724 240.426 185.014 240.426Z" fill="#6C63FF"/>
<path d="M185.293 242.017H184.634V246.614H185.293V242.017Z" fill="#3F3D56"/>
<path d="M24.5515 244.29C24.5515 244.29 24.779 239.539 29.4435 240.091Z" fill="#3F3D56"/>
<path d="M23.2337 239.769C24.523 239.769 25.5682 238.727 25.5682 237.442C25.5682 236.158 24.523 235.116 23.2337 235.116C21.9444 235.116 20.8992 236.158 20.8992 237.442C20.8992 238.727 21.9444 239.769 23.2337 239.769Z" fill="#6C63FF"/>
<path d="M23.513 241.36H22.854V245.957H23.513V241.36Z" fill="#3F3D56"/>
<path d="M62.7727 244.619C62.7727 244.619 63.0002 239.867 67.6647 240.42Z" fill="#3F3D56"/>
<path d="M61.4546 240.097C62.744 240.097 63.7892 239.056 63.7892 237.771C63.7892 236.486 62.744 235.444 61.4546 235.444C60.1653 235.444 59.1201 236.486 59.1201 237.771C59.1201 239.056 60.1653 240.097 61.4546 240.097Z" fill="#6C63FF"/>
<path d="M61.7337 241.688H61.0747V246.285H61.7337V241.688Z" fill="#3F3D56"/>
<path d="M164.419 30.3818L169.102 26.6493C165.464 26.2493 163.969 28.2265 163.358 29.7915C160.516 28.6154 157.422 30.1567 157.422 30.1567L166.791 33.5465C166.318 32.2883 165.496 31.1905 164.419 30.3818Z" fill="#3F3D56"/>
<path d="M235.635 68.402L240.318 64.6695C236.68 64.2695 235.185 66.2467 234.573 67.8117C231.731 66.6356 228.637 68.1769 228.637 68.1769L238.007 71.5667C237.534 70.3085 236.711 69.2107 235.635 68.402V68.402Z" fill="#3F3D56"/>
<path d="M158.823 100.846L163.506 97.1135C159.868 96.7135 158.374 98.6907 157.762 100.256C154.92 99.0796 151.826 100.621 151.826 100.621L161.195 104.011C160.723 102.752 159.9 101.655 158.823 100.846V100.846Z" fill="#3F3D56"/>
<path d="M131.484 225.361C131.484 225.361 135.152 236.065 133.58 239.981L138.296 244.159L141.177 240.503C141.177 240.503 138.034 237.371 138.296 235.021C138.557 232.671 138.819 224.317 138.819 224.317L131.484 225.361Z" fill="#FFB9B9"/>
<path d="M149.035 246.246C148.821 246.371 148.617 246.489 148.429 246.597H132.168C132.018 246.511 131.897 246.382 131.821 246.226C131.746 246.07 131.72 245.895 131.747 245.724C131.822 245.336 132.017 244.548 132.257 243.642C132.827 241.498 133.664 238.69 133.846 238.989C133.846 238.989 133.846 238.989 133.847 238.989C133.847 238.989 133.848 238.99 133.848 238.99C133.848 238.99 133.848 238.991 133.849 238.991C133.849 238.991 133.849 238.992 133.849 238.992C134.103 239.459 134.626 241.547 135.938 241.288C137.249 241.025 139.345 240.503 139.345 240.503C139.345 240.503 138.597 238.828 139.312 238.152C139.466 238.009 139.66 237.918 139.869 237.892C141.44 237.633 141.44 239.981 141.44 239.981L147.203 243.113C147.7 243.25 148.185 243.427 148.653 243.642C149.823 244.187 150.979 245.119 149.035 246.246Z" fill="#2F2E41"/>
<path d="M121.005 221.445L114.194 229.538L112.36 233.716L114.718 235.543L116.814 234.76C116.814 234.76 118.648 230.06 120.481 229.277C122.315 228.494 126.769 223.273 126.769 223.273L121.005 221.445Z" fill="#FFB9B9"/>
<path d="M135.283 215.234L131.809 221.651L129.32 226.246C128.524 226.719 127.463 226.711 126.321 226.432C125.788 226.296 125.267 226.122 124.759 225.912C121.642 224.641 118.48 222.116 118.48 222.116L124.463 214.665L126.418 212.234L126.881 211.655L129.116 212.608L133.059 214.286L135.283 215.234Z" fill="#2F2E41"/>
<path d="M119.78 159.821L117.005 171.164L119.861 185.717C119.861 185.717 119.931 191.666 122.549 191.214C125.166 190.763 122.423 184.763 122.423 184.763L121.143 172.83L125.236 161.042C125.389 160.56 125.369 160.039 125.177 159.571C124.986 159.102 124.636 158.715 124.189 158.477V158.477C122.568 157.491 120.265 158.192 119.78 159.821Z" fill="#FFB9B9"/>
<path d="M129.519 150.041L127.162 157.351L122.708 155.001C122.708 155.001 124.542 149.78 124.542 148.997C124.542 148.213 129.519 150.041 129.519 150.041Z" fill="#FFB9B9"/>
<path d="M127.686 152.913C130.724 152.913 133.187 150.458 133.187 147.43C133.187 144.402 130.724 141.948 127.686 141.948C124.647 141.948 122.184 144.402 122.184 147.43C122.184 150.458 124.647 152.913 127.686 152.913Z" fill="#FFB9B9"/>
<path d="M129.126 159.048L128.078 158.004L127.816 156.698C127.816 156.698 124.411 152.26 121.529 153.826C120.629 154.316 119.958 155.443 119.462 156.761C118.199 160.206 118.317 164.004 119.791 167.365L124.411 178.107L134.89 177.062L133.056 170.274C133.056 170.274 134.89 166.097 131.484 163.225L129.126 159.048Z" fill="#6C63FF"/>
<path opacity="0.3" d="M135.283 215.234L131.809 221.651L129.32 226.246C128.524 226.719 127.463 226.711 126.321 226.432C126.122 225.11 127.311 218.129 126.376 212.438L126.418 212.234L126.881 211.655L129.116 212.608L133.059 214.286L135.283 215.234Z" fill="black"/>
<path d="M135.283 176.409C135.283 176.409 128.471 172.232 123.756 177.454L124.018 179.02C124.018 179.02 120.088 183.459 122.446 192.857C124.804 202.256 128.471 226.797 128.471 226.797C128.471 226.797 137.117 227.319 141.046 224.447C141.046 224.447 139.736 192.074 135.283 188.941V176.409Z" fill="#2F2E41"/>
<path d="M121.08 161.869L128.472 170.927L141.832 177.454C141.832 177.454 146.631 180.993 147.852 178.642C149.073 176.291 142.618 174.843 142.618 174.843L132.305 168.648L125.354 158.274C125.061 157.861 124.632 157.563 124.142 157.432C123.652 157.301 123.131 157.344 122.67 157.556C120.902 158.247 120.071 160.499 121.08 161.869Z" fill="#FFB9B9"/>
<path d="M116.182 234.186C116.182 234.186 117.788 232.174 118.748 233.442C119.707 234.71 117.616 235.797 117.616 235.797L117.495 242.338C117.495 242.338 118.635 247.34 115.556 245.407C112.476 243.475 112.355 243.243 111.749 242.086C111.143 240.929 109.891 236.279 108.811 234.78C107.73 233.28 106.741 230.261 108.023 229.888C109.306 229.516 115.284 228.191 114.986 228.632C114.688 229.074 113.072 230.503 113.911 231.539C114.749 232.576 116.182 234.186 116.182 234.186Z" fill="#2F2E41"/>
<path d="M130.567 142.751C130.567 142.744 130.567 142.737 130.567 142.731C130.567 141.233 130.122 139.769 129.287 138.524C128.452 137.279 127.266 136.309 125.877 135.736C124.489 135.163 122.962 135.013 121.488 135.305C120.014 135.597 118.661 136.318 117.598 137.377C116.536 138.436 115.812 139.785 115.519 141.254C115.226 142.722 115.376 144.245 115.951 145.628C116.526 147.012 117.5 148.194 118.749 149.026C119.999 149.858 121.468 150.302 122.97 150.302C123.147 150.302 123.845 151.619 124.018 151.607C124.028 147.611 126.623 143.019 130.567 142.751Z" fill="#2F2E41"/>
<path d="M114.849 141.948C117.598 141.948 119.826 139.727 119.826 136.987C119.826 134.248 117.598 132.027 114.849 132.027C112.1 132.027 109.871 134.248 109.871 136.987C109.871 139.727 112.1 141.948 114.849 141.948Z" fill="#2F2E41"/>
<path d="M114.62 129.473C115.82 129.465 116.982 129.89 117.891 130.669C118.801 131.448 119.397 132.529 119.57 133.712C119.743 134.895 119.481 136.1 118.833 137.106C118.184 138.111 117.192 138.849 116.04 139.183C116.754 139.182 117.458 139.028 118.106 138.731C118.754 138.435 119.331 138.003 119.797 137.465C120.263 136.927 120.608 136.296 120.807 135.614C121.007 134.931 121.057 134.214 120.954 133.511C120.851 132.808 120.598 132.135 120.211 131.538C119.825 130.94 119.313 130.433 118.713 130.05C118.112 129.667 117.436 129.417 116.73 129.318C116.023 129.218 115.304 129.271 114.62 129.473V129.473Z" fill="#2F2E41"/>
<path d="M126.376 141.164H128.995C130.246 141.164 131.446 141.659 132.33 142.541C133.214 143.422 133.711 144.617 133.711 145.864V145.864H126.376V141.164Z" fill="#2F2E41"/>
<path d="M250.212 246.672C250.212 246.672 250.439 241.92 255.104 242.473Z" fill="#3F3D56"/>
<path d="M206.389 246.672C206.389 246.672 206.617 241.92 211.281 242.473Z" fill="#3F3D56"/>
<path d="M46.5867 246.672C46.5867 246.672 46.8142 241.92 51.4787 242.473Z" fill="#3F3D56"/>
<path d="M269.981 246.672C269.981 246.672 270.209 241.92 274.873 242.473Z" fill="#3F3D56"/>
<path d="M260.755 246.672C260.755 246.672 260.983 241.92 265.647 242.473Z" fill="#3F3D56"/>
<path d="M241.724 246.672C241.724 246.672 241.497 241.92 236.832 242.473Z" fill="#3F3D56"/>
<path d="M165.942 246.672C165.942 246.672 165.714 241.92 161.05 242.473Z" fill="#3F3D56"/>
<path d="M103.009 246.672C103.009 246.672 102.781 241.92 98.1167 242.473Z" fill="#3F3D56"/>
<path d="M36.1222 246.672C36.1222 246.672 35.8947 241.92 31.2302 242.473Z" fill="#3F3D56"/>
<path d="M289.83 246.672C289.83 246.672 289.602 241.92 284.938 242.473Z" fill="#3F3D56"/>
<path d="M261.494 247C261.494 247 261.266 242.249 256.602 242.801Z" fill="#3F3D56"/>
<path d="M325 246.05H0V246.78H325V246.05Z" fill="#3F3D56"/>
<path fill-rule="evenodd" clip-rule="evenodd" d="M128 80L110 86.866V94.5988V95.2165V108.505C110 115.934 117.981 121.313 125.787 126.574C126.52 127.068 127.251 127.561 127.973 128.054C128.696 127.561 129.427 127.068 130.16 126.574C137.966 121.313 145.947 115.934 145.947 108.505V95.2165H146V86.866L128 80Z" fill="white"/>
<path d="M137.415 98.088C136.767 96.8929 132.707 92.8907 128 98.685C123.057 92.8907 119.231 96.8929 118.585 98.088C117.407 100.298 118.114 103.644 119.762 105.257L128.001 113.621L136.24 105.257C137.886 103.644 138.592 100.299 137.415 98.088Z" fill="#3341C0"/>
</svg>
