<svg width="446" height="406" viewBox="0 0 446 406" fill="none" xmlns="http://www.w3.org/2000/svg">
<g clip-path="url(#clip0)">
<g style="mix-blend-mode:multiply">
<path d="M196.95 395.611C196.95 400.411 152.806 400.922 98.4752 404.302C44.1948 407.679 0 400.411 0 395.611C0 390.811 44.3983 381.152 98.4752 386.919C152.806 392.714 196.95 390.811 196.95 395.611Z" fill="rgba(0,0,0,0.2)"/>
</g>
<path d="M404.594 91.0916H287.872C282.239 91.0916 276.774 92.999 272.375 96.5003C267.976 100.002 264.905 104.889 263.666 110.358L204.689 370.743C204.045 373.583 204.034 376.529 204.656 379.374C205.277 382.219 206.516 384.894 208.286 387.212C210.056 389.53 212.314 391.434 214.901 392.792C217.489 394.149 220.344 394.927 223.265 395.07L343.257 400.955C349.682 401.27 356.003 399.247 361.04 395.264C366.077 391.282 369.486 385.611 370.631 379.31L404.087 195.214L406.576 195.922L412.977 161.029L410.415 160.392L419.754 109.004C420.154 106.803 420.061 104.541 419.482 102.38C418.903 100.219 417.852 98.2112 416.405 96.5005C414.957 94.7899 413.148 93.4181 411.106 92.4832C409.065 91.5483 406.841 91.0731 404.594 91.0916L404.594 91.0916Z" fill="#3F3D56"/>
<path d="M303.238 96.7048H289.613C285.7 96.7048 281.905 98.0368 278.857 100.48C275.81 102.923 273.694 106.329 272.859 110.135L216.249 368.396C215.923 369.883 215.923 371.422 216.25 372.909C216.577 374.396 217.222 375.795 218.141 377.011C219.061 378.226 220.233 379.23 221.578 379.954C222.923 380.678 224.41 381.104 225.935 381.203L345.538 389.006C348.913 389.226 352.25 388.202 354.914 386.129C357.578 384.056 359.382 381.079 359.981 377.766L408.287 110.828C408.6 109.101 408.528 107.326 408.076 105.629C407.624 103.932 406.804 102.354 405.673 101.007C404.541 99.6603 403.127 98.5769 401.529 97.8335C399.931 97.0901 398.189 96.7048 396.425 96.7048H383.5C382.249 96.7048 381.033 97.1153 380.04 97.8728C379.047 98.6302 378.333 99.6923 378.007 100.895C377.72 101.956 377.09 102.894 376.213 103.563C375.336 104.231 374.263 104.594 373.158 104.594H311.797C309.634 104.594 307.551 103.781 305.964 102.319C304.377 100.856 303.404 98.8511 303.238 96.7048V96.7048Z" fill="white"/>
<path d="M175.212 229.546L185.758 250.326L217.29 264.595C220.657 270.259 231.357 270.693 232.136 267.03C233.009 262.92 219.142 256.306 219.142 256.306L192.768 238.55L190.46 223.264L175.212 229.546Z" fill="#A0616A"/>
<path d="M176.456 369L174.512 384.486L185.792 385.261L186.958 369H176.456Z" fill="#A0616A"/>
<path d="M178.012 382.163C177.004 381.102 176.074 379.97 175.229 378.775C173.612 376.549 172.178 387.971 172.178 387.971C172.178 387.971 170.622 392.617 171.011 394.94C171.4 397.263 180.346 397.263 181.902 396.875C183.458 396.488 191.237 396.875 191.237 396.875H202.906C213.019 392.23 202.906 389.132 202.906 389.132C199.794 388.745 189.292 379.066 189.292 379.066L186.959 374.807C185.403 374.42 183.847 380.228 183.847 380.228L178.012 382.163Z" fill="#2F2E41"/>
<path d="M147.285 369.194L145.339 384.68L156.619 385.455L157.787 369.194H147.285Z" fill="#A0616A"/>
<path d="M148.84 382.357C147.832 381.296 146.902 380.163 146.057 378.969C144.44 376.742 143.006 388.165 143.006 388.165C143.006 388.165 141.45 392.423 141.839 394.746C142.228 397.069 151.174 397.069 152.73 396.682C154.286 396.295 162.065 397.069 162.065 397.069H173.734C183.847 392.423 173.734 389.326 173.734 389.326C170.622 388.939 160.12 379.26 160.12 379.26L157.786 375.001C156.23 374.614 154.675 380.421 154.675 380.421L148.84 382.357Z" fill="#2F2E41"/>
<path d="M160.12 269.306C158.564 271.242 159.342 277.824 159.342 277.824C159.342 277.824 156.62 299.118 157.786 301.054C158.953 302.989 157.009 304.538 155.842 307.248C154.675 309.958 153.508 316.54 153.508 316.54C146.895 321.96 147.284 346.738 147.284 346.738L144.951 368.806C145.729 371.129 156.62 371.517 158.175 371.129C159.731 370.742 164.399 335.898 164.399 335.898L174.901 316.153C174.901 316.153 174.123 368.806 174.123 371.129C174.123 373.452 184.625 372.291 186.959 372.291C189.292 372.291 189.293 333.575 189.293 333.575L191.626 323.509L204.073 277.437V272.017L202.128 269.306C202.128 269.306 161.676 267.371 160.12 269.306Z" fill="#2F2E41"/>
<path d="M177.235 181.421C183.894 181.421 189.292 176.048 189.292 169.419C189.292 162.791 183.894 157.417 177.235 157.417C170.575 157.417 165.177 162.791 165.177 169.419C165.177 176.048 170.575 181.421 177.235 181.421Z" fill="#A0616A"/>
<path d="M183.263 175.033C180.819 180.45 182.267 188.017 187.153 196.327L167.316 187.035L170.428 184.325L169.65 176.582L183.263 175.033Z" fill="#A0616A"/>
<path d="M183.263 187.422C185.861 188.959 187.415 191.784 188.307 194.658C189.958 199.979 190.952 205.48 191.267 211.04L192.209 227.687L203.878 271.823C193.765 280.341 187.931 278.405 174.317 271.436C160.703 264.467 159.148 273.759 159.148 273.759C159.148 273.759 157.981 273.372 159.148 272.21C160.314 271.049 159.148 272.21 157.981 271.049C156.814 269.887 157.981 271.049 158.37 269.887C158.759 268.726 158.37 269.5 157.981 269.113C157.592 268.726 159.537 265.241 159.537 265.241L156.425 236.204L152.535 195.165C157.203 189.358 170.427 184.325 170.427 184.325L182.485 192.842C186.375 194.391 183.263 188.197 183.263 188.197L183.263 187.422Z" fill="#E6E6E6"/>
<path d="M146.117 219.75L144.562 242.98L164.399 271.242C164.399 277.824 167.899 279.373 167.899 279.373C169.225 277.266 170.395 275.067 171.4 272.791C173.345 268.532 170.233 265.048 170.233 265.048L156.619 236.398L162.454 222.073L146.117 219.75Z" fill="#A0616A"/>
<path d="M152.73 195.359C146.118 197.682 144.951 222.847 144.951 222.847C152.73 218.588 162.065 225.557 162.065 225.557C162.065 225.557 164.01 218.976 166.344 210.458C167.048 208.062 167.133 205.528 166.588 203.091C166.044 200.654 164.89 198.394 163.232 196.52C163.232 196.52 159.342 193.036 152.73 195.359Z" fill="#E6E6E6"/>
<path d="M166.149 173.097C167.684 171.875 169.778 174.097 169.778 174.097L171.006 163.096C171.006 163.096 178.681 164.012 183.593 162.79C188.505 161.568 189.273 167.221 189.273 167.221C189.526 164.938 189.577 162.637 189.426 160.345C189.119 157.595 185.128 154.845 178.067 153.012C171.006 151.178 167.322 159.123 167.322 159.123C162.41 161.568 164.614 174.319 166.149 173.097Z" fill="#2F2E41"/>
<g style="mix-blend-mode:multiply">
<path d="M371.112 277.251C371.347 277.26 371.576 277.185 371.76 277.04C371.943 276.895 372.069 276.69 372.114 276.461L398.933 131.163C398.958 131.025 398.953 130.882 398.917 130.746C398.882 130.61 398.817 130.483 398.727 130.375C398.638 130.266 398.525 130.178 398.398 130.118C398.27 130.057 398.131 130.024 397.99 130.023L275.975 128.608H275.964C275.743 128.609 275.53 128.684 275.358 128.821C275.186 128.958 275.066 129.149 275.017 129.362L243.401 269.944C243.37 270.081 243.37 270.224 243.4 270.361C243.43 270.499 243.49 270.628 243.576 270.74C243.661 270.852 243.771 270.944 243.896 271.009C244.021 271.075 244.159 271.112 244.3 271.119L371.112 277.251Z" fill="#E6E6E6"/>
</g>
<g style="mix-blend-mode:multiply">
<path d="M264.928 286.533C264.818 286.533 264.712 286.57 264.626 286.637C264.541 286.705 264.48 286.8 264.456 286.906L263.329 291.713C263.313 291.781 263.312 291.852 263.326 291.92C263.341 291.989 263.369 292.053 263.411 292.11C263.453 292.166 263.506 292.212 263.568 292.246C263.629 292.28 263.697 292.3 263.767 292.305L327.427 296.808C327.545 296.816 327.661 296.78 327.755 296.709C327.849 296.637 327.914 296.534 327.937 296.419L329.021 290.857C329.034 290.79 329.033 290.72 329.017 290.653C329.001 290.586 328.971 290.524 328.928 290.469C328.886 290.415 328.832 290.37 328.771 290.338C328.71 290.306 328.643 290.287 328.574 290.283L264.957 286.534C264.947 286.533 264.937 286.533 264.928 286.533Z" fill="#E6E6E6"/>
</g>
<g style="mix-blend-mode:multiply">
<path d="M342.27 314.67C342.384 314.679 342.499 314.647 342.592 314.58C342.685 314.513 342.752 314.415 342.779 314.304L344.159 308.731C344.176 308.662 344.178 308.591 344.164 308.522C344.15 308.453 344.121 308.388 344.08 308.331C344.038 308.274 343.984 308.227 343.922 308.192C343.861 308.158 343.792 308.138 343.721 308.133L262.425 302.474C262.315 302.465 262.205 302.495 262.114 302.557C262.023 302.62 261.957 302.712 261.926 302.818L260.493 307.634C260.472 307.703 260.467 307.776 260.479 307.847C260.49 307.918 260.517 307.985 260.558 308.045C260.598 308.104 260.652 308.153 260.715 308.189C260.777 308.225 260.847 308.247 260.919 308.253L342.27 314.67Z" fill="#E6E6E6"/>
</g>
<g style="mix-blend-mode:multiply">
<path d="M337.904 332.536C338.019 332.545 338.133 332.513 338.226 332.446C338.32 332.379 338.386 332.281 338.414 332.17L339.793 326.596C339.81 326.528 339.812 326.457 339.798 326.387C339.784 326.318 339.756 326.253 339.714 326.196C339.672 326.139 339.619 326.092 339.557 326.058C339.495 326.024 339.426 326.004 339.355 325.999L258.06 320.339C257.949 320.331 257.839 320.36 257.748 320.423C257.657 320.486 257.591 320.578 257.561 320.684L256.127 325.5C256.106 325.569 256.102 325.641 256.113 325.712C256.124 325.783 256.151 325.851 256.192 325.91C256.233 325.969 256.286 326.019 256.349 326.055C256.411 326.091 256.481 326.112 256.553 326.118L337.904 332.536Z" fill="#E6E6E6"/>
</g>
<path d="M300.462 363.184C300.578 363.196 300.694 363.166 300.789 363.099C300.884 363.032 300.951 362.933 300.978 362.82L303.895 351.207C303.912 351.14 303.914 351.069 303.901 351C303.888 350.931 303.86 350.866 303.819 350.809C303.778 350.752 303.726 350.705 303.664 350.67C303.603 350.635 303.535 350.614 303.465 350.609L253.541 346.429C253.424 346.421 253.309 346.454 253.214 346.523C253.12 346.592 253.054 346.692 253.027 346.805L250.538 357.951C250.523 358.018 250.523 358.087 250.537 358.154C250.551 358.221 250.579 358.284 250.62 358.34C250.66 358.395 250.712 358.441 250.772 358.475C250.832 358.509 250.898 358.53 250.967 358.536L300.462 363.184Z" fill="#3341C0"/>
</g>
<g filter="url(#filter0_d)">
<path fill-rule="evenodd" clip-rule="evenodd" d="M310.313 35.6658L240.177 62.4186V92.5248H240.176V146.708C240.176 175.655 271.273 196.614 301.691 217.115C304.545 219.038 307.393 220.958 310.209 222.88C313.024 220.958 315.873 219.038 318.727 217.115C349.144 196.614 380.241 175.655 380.241 146.708V94.9557H380.449V62.4186L310.313 35.6658Z" fill="#1C2468"/>
</g>
<path d="M349.137 106.624C346.491 101.967 329.903 86.3731 310.673 108.95C290.479 86.3731 274.851 101.967 272.21 106.624C267.4 115.235 270.285 128.271 277.02 134.556L310.678 167.145L344.336 134.556C351.062 128.271 353.946 115.239 349.137 106.624H349.137Z" fill="#F4F8FB"/>
<defs>
<filter id="filter0_d" x="205.176" y="0.665771" width="240.272" height="287.214" filterUnits="userSpaceOnUse" color-interpolation-filters="sRGB">
<feFlood flood-opacity="0" result="BackgroundImageFix"/>
<feColorMatrix in="SourceAlpha" type="matrix" values="0 0 0 0 0 0 0 0 0 0 0 0 0 0 0 0 0 0 127 0"/>
<feOffset dx="15" dy="15"/>
<feGaussianBlur stdDeviation="25"/>
<feColorMatrix type="matrix" values="0 0 0 0 0 0 0 0 0 0 0 0 0 0 0 0 0 0 0.25 0"/>
<feBlend mode="normal" in2="BackgroundImageFix" result="effect1_dropShadow"/>
<feBlend mode="normal" in="SourceGraphic" in2="effect1_dropShadow" result="shape"/>
</filter>
<clipPath id="clip0">
<rect y="91.0911" width="420" height="314.076" fill="white"/>
</clipPath>
</defs>
</svg>
