<svg width="327" height="195" viewBox="0 0 327 195" fill="none" xmlns="http://www.w3.org/2000/svg">
<path d="M47.1452 15.3794H14.8398V36.9383H47.1452V15.3794Z" fill="#6C63FF"/>
<path d="M79.1813 15.3794H46.876V36.9383H79.1813V15.3794Z" fill="#E6E6E6"/>
<path opacity="0.8" d="M111.217 15.3794H78.9121V36.9383H111.217V15.3794Z" fill="#6C63FF"/>
<path d="M143.254 15.3794H110.948V36.9383H143.254V15.3794Z" fill="#6C63FF"/>
<path opacity="0.8" d="M175.29 15.3794H142.984V36.9383H175.29V15.3794Z" fill="#6C63FF"/>
<path d="M207.326 15.3794H175.021V36.9383H207.326V15.3794Z" fill="#E6E6E6"/>
<path d="M271.398 15.3794H239.093V36.9383H271.398V15.3794Z" fill="#E6E6E6"/>
<path opacity="0.8" d="M47.1452 35.8605H14.8398V57.4194H47.1452V35.8605Z" fill="#6C63FF"/>
<path d="M79.1813 35.8605H46.876V57.4194H79.1813V35.8605Z" fill="#6C63FF"/>
<path opacity="0.8" d="M143.254 35.8605H110.948V57.4194H143.254V35.8605Z" fill="#6C63FF"/>
<path d="M175.29 35.8605H142.984V57.4194H175.29V35.8605Z" fill="#6C63FF"/>
<path opacity="0.8" d="M207.326 35.8605H175.021V57.4194H207.326V35.8605Z" fill="#6C63FF"/>
<path d="M271.398 35.8605H239.093V57.4194H271.398V35.8605Z" fill="#6C63FF"/>
<path d="M47.1452 56.3414H14.8398V77.9003H47.1452V56.3414Z" fill="#E6E6E6"/>
<path opacity="0.8" d="M79.1813 56.3414H46.876V77.9003H79.1813V56.3414Z" fill="#6C63FF"/>
<path d="M111.217 56.3414H78.9121V77.9003H111.217V56.3414Z" fill="#E6E6E6"/>
<path d="M143.254 56.3414H110.948V77.9003H143.254V56.3414Z" fill="#6C63FF"/>
<path opacity="0.8" d="M175.29 56.3414H142.984V77.9003H175.29V56.3414Z" fill="#6C63FF"/>
<path d="M207.326 56.3414H175.021V77.9003H207.326V56.3414Z" fill="#E6E6E6"/>
<path d="M239.362 56.3414H207.057V77.9003H239.362V56.3414Z" fill="#6C63FF"/>
<path d="M47.1452 76.8224H14.8398V98.3813H47.1452V76.8224Z" fill="#6C63FF"/>
<path d="M79.1813 76.8224H46.876V98.3813H79.1813V76.8224Z" fill="#E6E6E6"/>
<path opacity="0.8" d="M207.326 76.8224H175.021V98.3813H207.326V76.8224Z" fill="#6C63FF"/>
<path opacity="0.8" d="M47.1452 97.3035H14.8398V118.862H47.1452V97.3035Z" fill="#6C63FF"/>
<path d="M79.1813 97.3035H46.876V118.862H79.1813V97.3035Z" fill="#6C63FF"/>
<path d="M111.217 97.3035H78.9121V118.862H111.217V97.3035Z" fill="#E6E6E6"/>
<path opacity="0.8" d="M143.254 97.3035H110.948V118.862H143.254V97.3035Z" fill="#6C63FF"/>
<path opacity="0.8" d="M175.29 97.3035H142.984V118.862H175.29V97.3035Z" fill="#6C63FF"/>
<path d="M47.1452 117.784H14.8398V139.343H47.1452V117.784Z" fill="#6C63FF"/>
<path d="M79.1813 117.784H46.876V139.343H79.1813V117.784Z" fill="#E6E6E6"/>
<path opacity="0.8" d="M111.217 117.784H78.9121V139.343H111.217V117.784Z" fill="#6C63FF"/>
<path d="M143.254 117.784H110.948V139.343H143.254V117.784Z" fill="#6C63FF"/>
<path d="M47.1452 138.964H14.8398V160.523H47.1452V138.964Z" fill="#E6E6E6"/>
<path opacity="0.8" d="M79.1813 138.964H46.876V160.523H79.1813V138.964Z" fill="#6C63FF"/>
<path d="M111.217 138.964H78.9121V160.523H111.217V138.964Z" fill="#E6E6E6"/>
<path d="M111.217 35.8605H78.9121V57.4194H111.217V35.8605Z" fill="#6C63FF"/>
<path d="M239.362 15.3794H207.057V36.9383H239.362V15.3794Z" fill="#6C63FF"/>
<path d="M175.29 76.8224H142.984V98.3813H175.29V76.8224Z" fill="#6C63FF"/>
<path d="M143.254 76.8224H110.948V98.3813H143.254V76.8224Z" fill="#E6E6E6"/>
<path opacity="0.8" d="M111.217 76.8224H78.9121V98.3813H111.217V76.8224Z" fill="#6C63FF"/>
<path d="M4.88847 31.1085C7.5883 31.1085 9.77694 28.9176 9.77694 26.215C9.77694 23.5124 7.5883 21.3215 4.88847 21.3215C2.18864 21.3215 0 23.5124 0 26.215C0 28.9176 2.18864 31.1085 4.88847 31.1085Z" fill="#3F3D56"/>
<path d="M30.993 9.78694C33.6928 9.78694 35.8814 7.59606 35.8814 4.89347C35.8814 2.19088 33.6928 0 30.993 0C28.2931 0 26.1045 2.19088 26.1045 4.89347C26.1045 7.59606 28.2931 9.78694 30.993 9.78694Z" fill="#E6E6E6"/>
<path d="M63.0291 9.78694C65.7289 9.78694 67.9176 7.59606 67.9176 4.89347C67.9176 2.19088 65.7289 0 63.0291 0C60.3293 0 58.1406 2.19088 58.1406 4.89347C58.1406 7.59606 60.3293 9.78694 63.0291 9.78694Z" fill="#E6E6E6"/>
<path d="M95.0652 9.78694C97.7651 9.78694 99.9537 7.59606 99.9537 4.89347C99.9537 2.19088 97.7651 0 95.0652 0C92.3654 0 90.1768 2.19088 90.1768 4.89347C90.1768 7.59606 92.3654 9.78694 95.0652 9.78694Z" fill="#E6E6E6"/>
<path d="M127.101 9.78694C129.801 9.78694 131.989 7.59606 131.989 4.89347C131.989 2.19088 129.801 0 127.101 0C124.401 0 122.212 2.19088 122.212 4.89347C122.212 7.59606 124.401 9.78694 127.101 9.78694Z" fill="#E6E6E6"/>
<path d="M159.137 9.78694C161.837 9.78694 164.025 7.59606 164.025 4.89347C164.025 2.19088 161.837 0 159.137 0C156.437 0 154.249 2.19088 154.249 4.89347C154.249 7.59606 156.437 9.78694 159.137 9.78694Z" fill="#E6E6E6"/>
<path d="M191.173 9.78694C193.873 9.78694 196.062 7.59606 196.062 4.89347C196.062 2.19088 193.873 0 191.173 0C188.473 0 186.285 2.19088 186.285 4.89347C186.285 7.59606 188.473 9.78694 191.173 9.78694Z" fill="#E6E6E6"/>
<path d="M223.209 9.78694C225.909 9.78694 228.098 7.59606 228.098 4.89347C228.098 2.19088 225.909 0 223.209 0C220.509 0 218.321 2.19088 218.321 4.89347C218.321 7.59606 220.509 9.78694 223.209 9.78694Z" fill="#E6E6E6"/>
<path d="M255.245 9.78694C257.945 9.78694 260.134 7.59606 260.134 4.89347C260.134 2.19088 257.945 0 255.245 0C252.546 0 250.357 2.19088 250.357 4.89347C250.357 7.59606 252.546 9.78694 255.245 9.78694Z" fill="#E6E6E6"/>
<path d="M287.282 9.78694C289.981 9.78694 292.17 7.59606 292.17 4.89347C292.17 2.19088 289.981 0 287.282 0C284.582 0 282.393 2.19088 282.393 4.89347C282.393 7.59606 284.582 9.78694 287.282 9.78694Z" fill="#E6E6E6"/>
<path d="M4.88847 51.5333C7.5883 51.5333 9.77694 49.3424 9.77694 46.6398C9.77694 43.9372 7.5883 41.7463 4.88847 41.7463C2.18864 41.7463 0 43.9372 0 46.6398C0 49.3424 2.18864 51.5333 4.88847 51.5333Z" fill="#3F3D56"/>
<path d="M4.88847 72.0144C7.5883 72.0144 9.77694 69.8235 9.77694 67.1209C9.77694 64.4183 7.5883 62.2274 4.88847 62.2274C2.18864 62.2274 0 64.4183 0 67.1209C0 69.8235 2.18864 72.0144 4.88847 72.0144Z" fill="#3F3D56"/>
<path d="M4.88847 92.4954C7.5883 92.4954 9.77694 90.3046 9.77694 87.602C9.77694 84.8994 7.5883 82.7085 4.88847 82.7085C2.18864 82.7085 0 84.8994 0 87.602C0 90.3046 2.18864 92.4954 4.88847 92.4954Z" fill="#3F3D56"/>
<path d="M4.88847 112.976C7.5883 112.976 9.77694 110.785 9.77694 108.083C9.77694 105.38 7.5883 103.189 4.88847 103.189C2.18864 103.189 0 105.38 0 108.083C0 110.785 2.18864 112.976 4.88847 112.976Z" fill="#3F3D56"/>
<path d="M4.88847 133.457C7.5883 133.457 9.77694 131.266 9.77694 128.564C9.77694 125.861 7.5883 123.67 4.88847 123.67C2.18864 123.67 0 125.861 0 128.564C0 131.266 2.18864 133.457 4.88847 133.457Z" fill="#3F3D56"/>
<path d="M4.88847 154.637C7.5883 154.637 9.77694 152.446 9.77694 149.744C9.77694 147.041 7.5883 144.85 4.88847 144.85C2.18864 144.85 0 147.041 0 149.744C0 152.446 2.18864 154.637 4.88847 154.637Z" fill="#3F3D56"/>
<path opacity="0.8" d="M303.434 15.3794H271.129V36.9383H303.434V15.3794Z" fill="#6C63FF"/>
<path opacity="0.1" d="M124.735 194.879C139.491 194.879 151.453 192.955 151.453 190.58C151.453 188.206 139.491 186.282 124.735 186.282C109.979 186.282 98.0171 188.206 98.0171 190.58C98.0171 192.955 109.979 194.879 124.735 194.879Z" fill="#6C63FF"/>
<path d="M150.57 84.2862C150.57 84.2862 149.49 84.1352 149.49 82.5585C149.49 80.9819 148.716 78.0373 148.716 78.0373C148.716 78.0236 148.047 72.9091 147.123 72.0961C146.199 71.2831 145.012 66.5092 145.012 66.5092C145.012 66.5092 144.809 63.919 144.395 63.3614C143.981 62.8038 143.422 61.4387 142.596 59.4912C141.771 57.5438 138.33 56.1951 138.33 56.1951C138.33 56.1951 132.108 52.5804 130.345 51.402C130.185 51.3052 130.035 51.192 129.898 51.0642C129.591 50.6604 128.253 50.6521 128.253 50.6521C128.113 49.7677 127.979 48.7514 127.935 47.8312C127.935 47.7323 127.935 47.6334 127.921 47.5346C129.887 46.3704 131.368 44.535 132.092 42.3652C132.125 42.2608 132.152 42.1509 132.182 42.0465C132.3 42.0077 132.408 41.9446 132.501 41.8613C132.593 41.7781 132.666 41.6765 132.717 41.5631C132.876 41.2088 132.879 40.794 133.076 40.4644C133.306 40.0744 133.745 39.8656 134.091 39.5717C134.963 38.8301 135.187 37.5803 135.146 36.4431C135.119 35.523 134.971 34.5946 135.028 33.6799L135.045 33.4492C135.061 33.3118 135.081 33.1745 135.105 33.0427C135.24 32.3615 135.533 31.7187 135.697 31.043C135.862 30.3673 135.878 29.6065 135.495 29.0241C134.932 28.1699 133.762 27.9996 132.733 27.9117C131.568 27.8128 130.526 27.9419 129.78 26.9723C129.431 26.4655 129.039 25.9904 128.607 25.5522C128.453 25.4094 126.962 24.4975 126.962 24.4371C125.506 23.7616 123.856 23.6348 122.314 24.08C121.541 24.3052 120.811 24.6733 120.027 24.8573C118.335 25.2583 116.388 24.8243 114.952 25.794C114.151 26.3433 113.671 27.2168 113.221 28.0683C112.856 28.7696 112.485 29.47 112.108 30.1695C111.502 31.3204 110.885 32.4906 110.63 33.765C110.577 34.0424 110.544 34.3233 110.532 34.6056V34.6193C110.532 34.7209 110.532 34.8226 110.532 34.9242V35.0533C110.532 35.1494 110.532 35.2428 110.548 35.328C110.564 35.4131 110.562 35.4406 110.57 35.4983C110.578 35.5559 110.592 35.685 110.608 35.7729C110.625 35.8608 110.658 36.0146 110.691 36.1355C110.704 36.1877 110.724 36.2371 110.74 36.2866C110.767 36.38 110.8 36.4706 110.836 36.5613C110.855 36.6079 110.874 36.6574 110.896 36.7041C110.937 36.8002 110.987 36.8936 111.036 36.9788C111.058 37.0172 111.074 37.0529 111.096 37.0886C111.173 37.2164 111.257 37.3393 111.349 37.4567C111.935 38.1901 112.799 38.657 113.438 39.3437C113.438 39.3712 113.438 39.3987 113.438 39.4234C113.438 39.5003 113.438 39.5744 113.438 39.6514C113.472 41.1828 113.879 42.6828 114.623 44.0208C115.368 45.3588 116.428 46.4943 117.71 47.3286C117.71 47.4329 117.724 47.5401 117.729 47.6444C117.783 48.4598 117.773 49.278 117.699 50.0918C117.587 49.9601 117.448 49.8551 117.29 49.7848C117.133 49.7144 116.961 49.6804 116.789 49.6853C116.671 49.6795 116.553 49.6897 116.438 49.7155L116.413 49.6963V49.721C115.81 49.8693 115.067 50.4983 114.357 52.2865C114.357 52.2865 112.196 54.7256 110.551 54.624C108.906 54.5223 104.741 57.162 104.741 57.162C104.741 57.162 100.677 59.8043 99.805 62.4962C99.3176 64.0226 98.7333 65.5162 98.0556 66.9679L93.0323 77.3369L92.1055 85.5635C92.1055 85.5635 92.6182 89.2222 92.5168 89.7797C92.4153 90.3373 94.6254 95.3667 94.6254 95.3667C94.6254 95.3667 101.927 108.219 104.911 108.878L105.124 108.727C105.252 108.794 105.387 108.844 105.527 108.878L106.142 108.444C106.179 108.928 106.163 109.414 106.095 109.894C105.684 111.163 106.249 119.445 106.967 121.068C107.685 122.691 107.43 143.976 107.43 143.976L107.329 145.855C107.329 145.855 107.329 145.915 107.354 146.02L107.329 146.465L107.403 146.503C107.48 147.099 107.455 147.704 107.329 148.291C107.071 149.115 106.967 151.445 106.967 151.445C106.967 151.445 104.913 164.596 105.887 167.238C106.86 169.881 107.688 172.776 107.688 172.776C107.688 172.776 108.716 176.072 107.738 176.635C106.759 177.198 103.976 178.143 104.549 179.516C105.07 180.785 107.047 184.186 107.34 184.683L107.315 184.944L106.912 189.32C106.977 189.897 107.134 190.461 107.376 190.99C107.817 191.943 108.675 192.932 110.307 192.825C110.581 192.805 110.899 192.772 111.206 192.731C114.192 192.33 117.869 190.995 117.869 190.995C117.678 190.874 117.503 190.729 117.348 190.564C117.201 190.421 117.085 190.251 117.006 190.062C116.928 189.873 116.888 189.67 116.89 189.465C116.934 188.669 115.445 184.873 115.075 183.939C115.017 183.804 114.987 183.727 114.987 183.727C114.987 183.727 118.382 180.173 117.817 177.022C117.817 177.022 114.061 174.825 115.297 173.619C116.534 172.413 118.744 168.95 118.744 168.95C118.744 168.95 118.845 155.999 118.744 154.065C118.638 152.723 118.702 151.373 118.933 150.046C118.974 149.846 119.024 149.651 119.076 149.459C120.786 149.714 122.512 149.846 124.241 149.851C124.872 149.851 125.514 149.851 126.161 149.813C126.161 149.996 126.169 150.194 126.186 150.406C126.328 153.614 126.594 159.24 126.811 161.33C127.118 164.327 128.815 172.402 128.815 172.402C128.815 172.402 125.577 174.484 129.38 179.615C129.38 179.615 129.38 181.475 129.128 181.744C128.858 182.624 128.641 183.519 128.478 184.425C128.319 185.392 128.253 186.37 128.511 186.878C129.128 188.092 132.829 187.993 132.829 187.993L132.92 187.976C133.619 187.904 134.325 187.971 134.998 188.175C135.67 188.378 136.296 188.713 136.838 189.16C138.245 190.292 143.583 189.795 146.473 189.435C147.606 189.292 148.363 189.16 148.363 189.16C148.399 189.032 148.412 188.898 148.401 188.765C148.371 188.053 147.814 186.493 144.041 185.101C144.041 185.101 140.493 182.711 140.543 180.629H140.469H140.057C140.356 180.612 140.548 180.629 140.548 180.629C140.548 180.629 139.158 175.547 139.725 175.135C140.293 174.723 138.593 169.092 138.593 169.092C138.593 169.092 137.62 159.644 137.568 158.982C137.57 158.414 137.656 157.849 137.823 157.306L137.568 152.126C137.568 152.126 137.518 150.404 137.568 149.843C137.559 149.357 137.52 148.871 137.45 148.39C137.425 148.198 137.4 147.997 137.373 147.8C138.703 147.462 139.566 147.149 139.566 147.149L139.413 129.116C140.543 126.919 140.751 122.098 140.745 118.678C140.745 116.481 140.647 114.855 140.647 114.855L142.191 112.331C142.191 112.331 142.547 109.309 141.982 108.647C141.733 108.348 141.845 108.037 142.051 107.782C142.157 107.697 142.27 107.62 142.388 107.551C142.388 107.551 142.371 107.527 142.352 107.491C142.46 107.401 142.575 107.319 142.695 107.246C142.695 107.246 142.147 106.395 142.637 106.035C143.098 106.348 143.509 106.584 143.822 106.777C143.8 106.977 143.778 107.093 143.778 107.093L143.91 106.818C144.211 106.988 144.395 107.093 144.395 107.093C144.395 107.093 146.813 102.267 146.761 101.555C146.709 100.844 148.407 97.847 148.407 97.847C148.407 97.847 148.612 96.2731 149.539 95.6139C150.466 94.9547 150.257 90.178 150.257 90.178C150.257 90.178 150.515 87.6895 151.132 86.6732C151.749 85.6569 150.57 84.2862 150.57 84.2862ZM104.296 82.1685L104.343 83.3194C104.069 82.8771 103.871 82.5585 103.871 82.5585L104.296 82.1685Z" fill="url(#paint0_linear)"/>
<path d="M144.527 105.008L143.934 107.535C143.934 107.535 139.191 105.109 138.335 102.028C137.48 98.9458 139.766 97.7756 139.766 97.7756L144.187 99.6517L144.527 105.008Z" fill="white"/>
<path opacity="0.1" d="M144.527 105.008L143.934 107.535C143.934 107.535 139.191 105.109 138.335 102.028C137.48 98.9458 139.766 97.7756 139.766 97.7756L144.187 99.6517L144.527 105.008Z" fill="black"/>
<path d="M117.904 191.012C117.904 191.012 113.517 192.627 110.501 192.83C108.9 192.937 108.058 191.954 107.625 191.006C107.388 190.479 107.235 189.919 107.172 189.344L107.564 184.991L107.773 182.672L114.181 181.005L115.088 183.785L115.173 183.996C115.538 184.925 117 188.702 116.956 189.49C116.954 189.692 116.993 189.892 117.07 190.078C117.147 190.265 117.261 190.434 117.405 190.575C117.553 190.741 117.72 190.888 117.904 191.012Z" fill="white"/>
<path d="M147.872 188.798C147.883 188.93 147.87 189.063 147.834 189.191C147.834 189.191 138.451 190.759 136.531 189.191C135.99 188.732 135.359 188.393 134.679 188.193C133.999 187.993 133.285 187.938 132.583 188.031C132.583 188.031 128.952 188.13 128.346 186.933C128.094 186.43 128.16 185.455 128.316 184.494C128.476 183.593 128.688 182.702 128.952 181.826L129.098 181.711L129.961 181.016L140.074 180.717H140.151C140.101 182.788 143.584 185.164 143.584 185.164C147.282 186.537 147.828 188.089 147.872 188.798Z" fill="white"/>
<path opacity="0.1" d="M147.872 188.798C147.882 188.93 147.868 189.063 147.831 189.191C147.831 189.191 138.451 190.759 136.531 189.191C135.99 188.733 135.36 188.393 134.681 188.194C134.001 187.994 133.287 187.939 132.585 188.031C132.585 188.031 128.952 188.13 128.349 186.933C128.097 186.427 128.16 185.455 128.316 184.494C129.715 184.634 131.922 184.983 132.788 185.815C134.099 187.081 136.32 188.345 137.683 188.444C138.749 188.512 145.13 188.715 147.872 188.798Z" fill="black"/>
<path opacity="0.1" d="M117.905 191.012C117.905 191.012 113.518 192.627 110.502 192.83C108.9 192.937 108.058 191.954 107.628 191.003C108.744 191.38 110.293 191.775 111.108 191.413C112.073 190.984 115.495 190.707 117.414 190.589C117.56 190.749 117.725 190.891 117.905 191.012Z" fill="black"/>
<path d="M124.414 60.8564C120.795 59.4473 116.139 54.7916 117.301 52.6161C117.56 52.0672 117.713 51.4747 117.754 50.8692C117.829 50.0473 117.84 49.2208 117.787 48.3971C117.705 47.0482 117.543 45.7054 117.301 44.3759C117.301 44.3759 128.601 44.6313 127.943 46.2986C127.751 46.7875 127.721 47.6363 127.773 48.5866C127.825 49.537 127.962 50.611 128.105 51.5202C128.302 52.7672 128.5 53.7176 128.5 53.7176C128.5 53.7176 127.809 54.6872 127.403 54.7394C126.997 54.7916 129.607 62.8643 124.414 60.8564Z" fill="#CF6F80"/>
<path opacity="0.1" d="M115.166 183.996L115.081 184.09C111.703 179.997 107.617 185.098 107.617 185.098L107.557 184.991L107.765 182.672L114.173 181.005L115.081 183.785L115.166 183.996Z" fill="black"/>
<path opacity="0.1" d="M140.153 181.005C140.153 181.005 137.685 180.953 136.369 182.118C135.053 183.282 128.691 182.37 128.966 182.118C129.047 181.993 129.096 181.849 129.108 181.7L129.972 181.005L140.084 180.706C140.123 180.89 140.153 181.005 140.153 181.005Z" fill="black"/>
<path d="M119.369 148.865C119.185 149.32 119.046 149.792 118.952 150.274C118.724 151.594 118.66 152.938 118.763 154.274C118.864 156.196 118.763 169.081 118.763 169.081C118.763 169.081 116.594 172.518 115.385 173.729C114.176 174.94 117.853 177.116 117.853 177.116C118.401 180.247 115.078 183.785 115.078 183.785C111.7 179.692 107.614 184.796 107.614 184.796C107.614 184.796 105.393 180.95 104.839 179.577C104.285 178.203 107.008 177.253 107.965 176.695C108.922 176.138 107.918 172.85 107.918 172.85C107.918 172.85 107.11 169.969 106.15 167.34C105.19 164.711 107.208 151.626 107.208 151.626C107.208 151.626 107.312 149.302 107.562 148.492C107.688 147.907 107.713 147.305 107.636 146.712C107.62 146.511 107.6 146.344 107.587 146.231C107.573 146.119 107.562 146.066 107.562 146.066L107.6 146L108.971 143.44C108.971 143.44 120.027 147.253 119.369 148.865Z" fill="#6C63FF"/>
<path d="M140.153 180.703C140.153 180.703 137.685 180.651 136.369 181.802C135.053 182.953 128.692 182.054 128.966 181.802C129.24 181.549 129.218 179.679 129.218 179.679C125.486 174.575 128.67 172.504 128.67 172.504C128.67 172.504 127.003 164.47 126.701 161.489C126.49 159.407 126.229 153.812 126.09 150.618C126.029 149.244 125.994 148.3 125.994 148.3L129.043 147.684L129.435 147.605L136.789 146.127C136.789 146.127 136.992 147.5 137.129 148.624C137.197 149.103 137.236 149.587 137.244 150.071C137.195 150.621 137.244 152.34 137.244 152.34L137.494 157.496C137.33 158.036 137.246 158.598 137.244 159.163C137.293 159.819 138.25 169.219 138.25 169.219C138.25 169.219 139.915 174.828 139.347 175.232C138.779 175.635 140.153 180.703 140.153 180.703Z" fill="#6C63FF"/>
<path opacity="0.1" d="M127.943 46.2986C127.751 46.7875 127.721 47.6362 127.773 48.5866C126.26 49.4996 124.52 49.9665 122.753 49.9334C120.987 49.9004 119.266 49.3688 117.787 48.3998C117.706 47.05 117.544 45.7063 117.302 44.3759C117.302 44.3759 128.601 44.6258 127.943 46.2986Z" fill="black"/>
<path d="M132.311 40.2282C132.313 41.218 132.158 42.2018 131.85 43.1425C131.163 45.2503 129.755 47.0469 127.873 48.2149C125.992 49.3828 123.759 49.8469 121.569 49.5251C119.379 49.2033 117.373 48.1163 115.906 46.4563C114.438 44.7962 113.604 42.67 113.55 40.4534C113.55 40.3765 113.55 40.3051 113.55 40.2282C113.529 38.9805 113.756 37.7411 114.218 36.5821C114.68 35.4232 115.367 34.3681 116.241 33.4782C117.114 32.5883 118.155 31.8815 119.304 31.399C120.453 30.9166 121.686 30.6681 122.932 30.6681C124.178 30.6681 125.411 30.9166 126.56 31.399C127.708 31.8815 128.75 32.5883 129.623 33.4782C130.496 34.3681 131.184 35.4232 131.646 36.5821C132.108 37.7411 132.335 38.9805 132.314 40.2282H132.311Z" fill="#CF6F80"/>
<path opacity="0.1" d="M124.414 60.8564C120.795 59.4473 116.139 54.7915 117.301 52.6161C117.56 52.0671 117.713 51.4746 117.754 50.8691L122.709 54.9481L125.774 57.4669L128.105 51.5229C128.302 52.7699 128.5 53.7203 128.5 53.7203C128.5 53.7203 127.809 54.6899 127.403 54.7421C126.997 54.7943 129.607 62.8643 124.414 60.8564Z" fill="black"/>
<path d="M137.228 78.8833L133.09 148.514L127.694 148.868L113.721 108.493L116.013 60.5597L116.496 50.4324L122.709 55.5441L125.777 58.0629L128.176 51.9458L132.638 55.8407L137.228 78.8833Z" fill="#6C63FF"/>
<path opacity="0.1" d="M119.369 148.865C119.185 149.321 119.045 149.792 118.952 150.274C115.025 149.667 111.212 148.474 107.638 146.734L107.564 146.695L107.589 146.253L107.603 146.023L108.974 143.463C108.974 143.463 120.027 147.253 119.369 148.865Z" fill="black"/>
<path opacity="0.1" d="M129.106 150.285C128.102 150.456 127.089 150.572 126.073 150.632C126.013 149.258 125.977 148.313 125.977 148.313L129.026 147.698L129.106 150.285Z" fill="black"/>
<path opacity="0.1" d="M137.112 148.637C135.162 149.146 132.152 149.717 129.456 149.36L129.418 147.618L136.772 146.141C136.772 146.141 136.975 147.5 137.112 148.637Z" fill="black"/>
<path opacity="0.1" d="M129.407 149.678C118.165 151.601 107.869 146.088 107.869 146.088L107.967 144.221C107.967 144.221 108.222 123.046 107.515 121.422C106.808 119.799 106.256 111.567 106.657 110.304C107.057 109.04 105.195 90.0929 105.195 90.0929L104.894 82.4019L93.8545 77.922L98.7901 67.6161C99.4567 66.1712 100.03 64.6849 100.507 63.1664C101.365 60.491 105.349 57.8624 105.349 57.8624C105.349 57.8624 109.434 55.2365 111.049 55.3354C112.664 55.4342 114.781 53.0116 114.781 53.0116C116.344 49.0205 117.759 50.8279 117.759 50.8279C117.759 51.0174 117.759 50.8279 117.682 51.4185C117.134 55.7996 126.55 69.6432 126.684 69.8877L127.581 91.7684L128.488 119.458L129.407 149.678Z" fill="black"/>
<path d="M129.106 149.678C117.864 151.601 107.565 146.088 107.565 146.088L107.666 144.221C107.666 144.221 107.921 123.046 107.211 121.423C106.501 119.799 105.952 111.567 106.355 110.304C106.759 109.04 104.894 90.093 104.894 90.093L104.59 82.4021L93.5449 77.9056L98.4805 67.5998C99.1457 66.1542 99.719 64.668 100.197 63.15C101.052 60.4747 105.039 57.846 105.039 57.846C105.039 57.846 109.125 55.2201 110.737 55.319C112.349 55.4179 114.469 52.9952 114.469 52.9952C116.035 49.0042 117.759 50.8116 117.759 50.8116C117.759 51.0011 117.595 51.0862 117.683 51.4021C118.889 55.6513 126.249 69.6269 126.383 69.8713L127.291 91.752L128.198 119.442L129.106 149.678Z" fill="white"/>
<path opacity="0.1" d="M126.076 70.4949C124.867 69.9895 118.461 62.6638 118.461 62.6638V60.9966C118.228 60.4472 116.843 60.7823 115.719 61.1669L116.202 51.0396L116.75 51.4955C117.951 55.742 125.936 70.2504 126.076 70.4949Z" fill="black"/>
<path d="M126.38 69.8878C125.168 69.3824 118.763 62.0568 118.763 62.0568V60.3895C118.53 59.8402 117.145 60.1753 116.021 60.5598L116.506 50.4325L117.055 50.8885C118.258 55.135 126.246 69.6461 126.38 69.8878Z" fill="white"/>
<path opacity="0.1" d="M107.869 106.422C108.02 106.422 115.686 105.615 115.686 105.615C115.686 105.615 120.328 114.759 120.024 116.984C119.72 119.209 119.169 121.178 117.301 120.829C115.434 120.48 107.252 121.104 107.252 121.104L107.869 106.422Z" fill="black"/>
<path d="M107.565 105.815C107.716 105.815 115.382 105.008 115.382 105.008C115.382 105.008 120.022 114.155 119.72 116.377C119.418 118.599 118.862 120.571 116.997 120.222C115.133 119.873 106.948 120.497 106.948 120.497L107.565 105.815Z" fill="white"/>
<path d="M113.342 101.522C113.342 101.522 120.378 105.31 120.529 106.466C120.679 107.623 116.948 105.961 116.141 105.76C115.611 105.632 115.071 105.548 114.526 105.508L109.149 105.653L113.342 101.522Z" fill="#CF6F80"/>
<path opacity="0.1" d="M124.112 70.9671C124.521 70.9671 124.853 70.6351 124.853 70.2255C124.853 69.8159 124.521 69.4839 124.112 69.4839C123.704 69.4839 123.372 69.8159 123.372 70.2255C123.372 70.6351 123.704 70.9671 124.112 70.9671Z" fill="black"/>
<path d="M124.112 70.6651C124.521 70.6651 124.853 70.3331 124.853 69.9235C124.853 69.5139 124.521 69.1819 124.112 69.1819C123.704 69.1819 123.372 69.5139 123.372 69.9235C123.372 70.3331 123.704 70.6651 124.112 70.6651Z" fill="#3F3D56"/>
<path opacity="0.1" d="M125.476 103.071C125.885 103.071 126.216 102.739 126.216 102.33C126.216 101.92 125.885 101.588 125.476 101.588C125.067 101.588 124.735 101.92 124.735 102.33C124.735 102.739 125.067 103.071 125.476 103.071Z" fill="black"/>
<path d="M125.476 102.766C125.885 102.766 126.216 102.434 126.216 102.025C126.216 101.615 125.885 101.283 125.476 101.283C125.067 101.283 124.735 101.615 124.735 102.025C124.735 102.434 125.067 102.766 125.476 102.766Z" fill="#3F3D56"/>
<path opacity="0.1" d="M124.85 87.0194C125.259 87.0194 125.59 86.6874 125.59 86.2778C125.59 85.8682 125.259 85.5361 124.85 85.5361C124.441 85.5361 124.109 85.8682 124.109 86.2778C124.109 86.6874 124.441 87.0194 124.85 87.0194Z" fill="black"/>
<path d="M124.85 86.7171C125.259 86.7171 125.59 86.3851 125.59 85.9755C125.59 85.5659 125.259 85.2339 124.85 85.2339C124.441 85.2339 124.109 85.5659 124.109 85.9755C124.109 86.3851 124.441 86.7171 124.85 86.7171Z" fill="#3F3D56"/>
<path d="M141.916 105.354C141.916 105.354 142.421 106.112 141.916 106.466C141.412 106.821 141.966 107.678 141.966 107.678C141.966 107.678 140.707 108.417 141.261 109.081C141.815 109.746 141.464 112.748 141.464 112.748L139.95 115.259C139.95 115.259 140.041 116.877 140.046 119.063C140.046 122.474 139.846 127.27 138.738 129.457L138.892 147.396C138.892 147.396 133.591 149.335 129.155 148.744L128.497 119.958C128.497 119.958 129.457 103.634 129.81 100.503C130.017 98.8775 130.102 97.2385 130.063 95.6002C130.063 95.6002 129.912 90.6999 129.404 88.4256C129.404 88.4256 128.856 78.573 128.801 75.8454C128.777 74.5407 128.845 70.7337 128.922 67.1135C129.007 63.1554 129.103 59.4226 129.103 59.4226L128.102 51.4899C128.102 51.4899 129.103 51.3883 129.404 51.7921C129.54 51.9185 129.687 52.0316 129.843 52.1299C131.571 53.3 137.674 56.8983 137.674 56.8983C137.674 56.8983 141.052 58.2442 141.861 60.1724C142.67 62.1007 143.232 63.4685 143.624 64.0179C144.017 64.5672 144.23 67.1492 144.23 67.1492C144.23 67.1492 145.393 71.9011 146.301 72.7059C147.208 73.5107 147.872 78.6307 147.872 78.6307L139.851 84.9482C139.851 84.9482 139.147 95.4573 138.996 95.8638C138.845 96.2704 141.916 105.354 141.916 105.354Z" fill="white"/>
<path d="M142.221 105.354C142.221 105.354 142.722 106.112 142.221 106.466C141.719 106.821 142.267 107.678 142.267 107.678C142.267 107.678 141.017 108.425 141.565 109.09C142.114 109.754 141.768 112.756 141.768 112.756L140.255 115.267C140.255 115.267 140.345 116.885 140.353 119.071C140.353 122.483 140.153 127.279 139.045 129.465L139.196 147.404C139.196 147.404 133.888 149.343 129.457 148.753L128.801 119.967C128.801 119.967 129.761 103.643 130.115 100.511C130.322 98.8858 130.405 97.2468 130.364 95.6085C130.364 95.6085 130.214 90.7082 129.709 88.4339C129.709 88.4339 129.161 78.5813 129.103 75.8538C129.078 74.5491 129.15 70.742 129.224 67.1218C129.309 63.1637 129.405 59.4309 129.405 59.4309L128.083 51.3911C128.083 51.3911 129.405 51.3911 129.709 51.8004C129.843 51.9283 129.99 52.0416 130.148 52.1382C131.875 53.3084 137.982 56.9066 137.982 56.9066C137.982 56.9066 141.357 58.2525 142.166 60.1807C142.975 62.109 143.537 63.4769 143.932 64.0262C144.327 64.5756 144.535 67.1575 144.535 67.1575C144.535 67.1575 145.698 71.9094 146.605 72.7142C147.513 73.519 148.168 78.628 148.168 78.628L140.148 84.9455C140.148 84.9455 139.443 95.4547 139.289 95.8612C139.136 96.2677 142.221 105.354 142.221 105.354Z" fill="white"/>
<path opacity="0.1" d="M132.615 61.7629L133.339 63.8779L129.528 67.7234C129.613 63.768 129.709 60.0324 129.709 60.0324L128.387 51.9927C128.387 51.9927 129.709 51.9927 130.013 52.4019C130.147 52.5295 130.294 52.6419 130.452 52.737L133.693 62.1035L132.615 61.7629Z" fill="black"/>
<path d="M132.311 61.1557L133.038 63.2707L129.226 67.1162C129.311 63.1581 129.407 59.4253 129.407 59.4253L128.083 51.3855C128.083 51.3855 129.407 51.3855 129.709 51.7948C129.844 51.9219 129.99 52.0351 130.148 52.1326L133.391 61.4963L132.311 61.1557Z" fill="white"/>
<path opacity="0.1" d="M132.311 40.2282C132.313 41.218 132.158 42.2018 131.85 43.1425C131.798 43.1506 131.745 43.1482 131.695 43.1355C131.644 43.1227 131.596 43.0999 131.554 43.0683C131.483 40.5963 130.268 38.2752 128.774 36.3003C128.354 35.704 127.845 35.176 127.266 34.7347C126.679 34.2936 125.95 34.087 125.22 34.1551C124.397 34.2677 123.671 34.8281 122.84 34.8995C121.743 34.9901 120.762 34.2293 119.673 34.1908C119.231 34.195 118.794 34.2937 118.393 34.4803C117.991 34.667 117.634 34.9372 117.345 35.273C116.773 35.9507 116.348 36.7402 116.098 37.5913C115.666 38.8818 115.432 40.23 115.401 41.5906C115.387 42.3597 115.313 43.3238 114.6 43.604C114.654 43.0383 114.59 42.4677 114.412 41.9282C114.234 41.3887 113.946 40.8922 113.567 40.4699L113.55 40.4534C113.55 40.3765 113.55 40.3051 113.55 40.2282C113.529 38.9805 113.756 37.7411 114.218 36.5821C114.68 35.4232 115.367 34.3681 116.241 33.4782C117.114 32.5883 118.155 31.8815 119.304 31.399C120.453 30.9166 121.686 30.6681 122.932 30.6681C124.178 30.6681 125.411 30.9166 126.56 31.399C127.708 31.8815 128.75 32.5883 129.623 33.4782C130.496 34.3681 131.184 35.4232 131.646 36.5821C132.108 37.7411 132.335 38.9805 132.314 40.2282H132.311Z" fill="black"/>
<path d="M126.816 25.3051C125.391 24.6337 123.771 24.5067 122.259 24.948C121.499 25.1733 120.784 25.5386 120.013 25.7226C118.368 26.1209 116.449 25.6896 115.036 26.6538C114.252 27.2031 113.781 28.0711 113.342 28.9143L112.245 31.0074C111.647 32.1528 111.044 33.3174 110.795 34.5782C110.545 35.8389 110.696 37.2508 111.494 38.2643C112.075 39.0032 112.933 39.4674 113.564 40.1623C113.942 40.585 114.228 41.0813 114.406 41.6202C114.583 42.159 114.648 42.7287 114.595 43.2936C115.311 43.0189 115.379 42.0521 115.396 41.283C115.426 39.9224 115.661 38.5743 116.092 37.2837C116.342 36.4324 116.767 35.6428 117.34 34.9654C117.629 34.6299 117.986 34.3598 118.387 34.1733C118.789 33.9867 119.225 33.8878 119.668 33.8832C120.765 33.9217 121.749 34.6798 122.835 34.5891C123.657 34.5205 124.387 33.9574 125.215 33.8475C125.945 33.7783 126.674 33.985 127.26 34.4271C127.84 34.8677 128.348 35.3959 128.766 35.9927C130.263 37.9677 131.477 40.2832 131.549 42.7608C131.859 42.9887 132.306 42.6921 132.459 42.3405C132.613 41.9889 132.618 41.5769 132.813 41.2418C133.038 40.8545 133.468 40.6485 133.805 40.3573C134.661 39.6185 134.875 38.3742 134.842 37.2453C134.809 36.1163 134.59 34.9709 134.803 33.8613C134.932 33.1801 135.223 32.5428 135.382 31.8699C135.541 31.1969 135.56 30.4415 135.185 29.862C134.636 29.0105 133.482 28.8429 132.476 28.7633C131.332 28.6644 130.309 28.7907 129.58 27.8266C129.238 27.3235 128.852 26.8511 128.428 26.4148C128.283 26.272 126.816 25.3655 126.816 25.3051Z" fill="#512E4E"/>
<path opacity="0.1" d="M97.0132 83.2289L94.1478 77.9221L93.2402 86.1102C93.2402 86.1102 93.7448 89.7469 93.6433 90.3045C93.5419 90.8621 95.7108 95.8612 95.7108 95.8612C95.7108 95.8612 102.876 108.645 105.801 109.304L115.686 102.228L113.065 98.8937C113.065 98.8937 112.157 98.5393 111.93 98.8937C111.93 98.8937 107.063 90.505 106.558 89.898C106.054 89.291 106.152 88.0796 106.152 88.0796C106.152 88.0796 105.395 87.2721 105.648 86.514C105.9 85.7559 104.186 83.1272 104.186 83.1272L105.749 81.6632L97.0132 83.2289Z" fill="black"/>
<path d="M94.2992 77.3176L93.5424 77.9219L92.6348 86.11C92.6348 86.11 93.1393 89.7467 93.0378 90.3043C92.9364 90.8619 95.108 95.861 95.108 95.861C95.108 95.861 102.27 108.644 105.196 109.304L115.083 102.228L112.459 98.8934C112.459 98.8934 111.552 98.5391 111.324 98.8934C111.324 98.8934 106.457 90.5048 105.953 89.8978C105.448 89.2908 105.55 88.0794 105.55 88.0794C105.55 88.0794 104.793 87.2719 105.045 86.5138C105.297 85.7557 103.581 83.127 103.581 83.127L105.144 81.663L94.2992 77.3176Z" fill="white"/>
<path opacity="0.1" d="M141.261 109.394C141.809 110.062 141.463 113.059 141.463 113.059L139.95 115.569C139.95 115.569 140.04 117.19 140.046 119.373L137.501 120.17C137.271 120.242 137.028 120.258 136.79 120.216C136.553 120.174 136.329 120.077 136.137 119.931C135.945 119.785 135.791 119.595 135.687 119.377C135.584 119.159 135.533 118.92 135.541 118.679L135.979 104.502L141.916 106.777C141.411 107.128 141.965 107.991 141.965 107.991C141.965 107.991 140.707 108.727 141.261 109.394Z" fill="black"/>
<path d="M141.565 109.09C142.113 109.757 141.768 112.756 141.768 112.756L140.254 115.267C140.254 115.267 140.345 116.885 140.353 119.071L137.762 119.882C137.537 119.952 137.298 119.967 137.066 119.926C136.833 119.885 136.614 119.789 136.427 119.646C136.239 119.503 136.088 119.317 135.986 119.104C135.885 118.891 135.835 118.656 135.842 118.42L136.284 104.2L142.223 106.475C141.716 106.826 142.27 107.686 142.27 107.686C142.27 107.686 141.017 108.425 141.565 109.09Z" fill="white"/>
<path d="M143.531 102.333C143.531 102.333 143.128 104.912 142.119 105.063C141.11 105.214 140.658 109.235 139.651 109.092C138.645 108.95 139.311 105.354 139.347 104.656C139.383 103.959 138.25 101.069 139.098 100.413C139.945 99.7561 142.626 100.413 142.626 100.413L143.531 102.333Z" fill="#CF6F80"/>
<path opacity="0.1" d="M145.678 82.4707L147.581 78.6252C147.581 78.6252 148.338 81.556 148.338 83.1217C148.338 84.6873 149.397 84.8412 149.397 84.8412C149.397 84.8412 150.556 86.2145 149.945 87.2144C149.333 88.2142 149.087 90.7028 149.087 90.7028C149.087 90.7028 149.287 95.4519 148.379 96.1084C147.472 96.7649 147.282 98.3333 147.282 98.3333C147.282 98.3333 145.615 101.313 145.667 102.022C145.72 102.731 143.348 107.529 143.348 107.529C143.348 107.529 144.508 101.566 137.749 98.9897C137.749 98.9897 137.697 96.9654 138.201 96.4105C138.706 95.8557 139.493 95.603 138.999 92.7985C138.505 89.9941 138.856 86.643 138.856 85.9701C138.856 85.2971 140.37 81.1001 140.37 81.1001L145.678 82.4707Z" fill="black"/>
<path d="M146.501 78.0758L148.163 78.6252C148.163 78.6252 148.922 81.556 148.922 83.1216C148.922 84.6873 149.981 84.8411 149.981 84.8411C149.981 84.8411 151.14 86.2145 150.529 87.2143C149.917 88.2141 149.673 90.7027 149.673 90.7027C149.673 90.7027 149.874 95.4518 148.966 96.1083C148.058 96.7648 147.855 98.3332 147.855 98.3332C147.855 98.3332 146.191 101.313 146.243 102.022C146.295 102.731 143.921 107.529 143.921 107.529C143.921 107.529 145.083 101.566 138.322 98.9896C138.322 98.9896 138.272 96.9653 138.777 96.4104C139.281 95.8556 140.068 95.6029 139.575 92.7984C139.081 89.994 139.432 86.643 139.432 85.97C139.432 85.297 140.946 81.1 140.946 81.1L146.501 78.0758Z" fill="white"/>
<path opacity="0.1" d="M109.799 177.748C109.799 177.748 112.448 176.08 114.186 177.292C115.925 178.503 109.799 177.748 109.799 177.748Z" fill="black"/>
<path opacity="0.1" d="M130.381 172.592C130.381 172.592 132.725 172.29 134.694 174.413C136.663 176.536 130.381 172.592 130.381 172.592Z" fill="black"/>
<g opacity="0.1">
<path opacity="0.1" d="M133.811 39.7557C133.474 40.0469 133.041 40.2557 132.816 40.6429C132.624 40.9753 132.619 41.3846 132.465 41.7417C132.311 42.0987 131.864 42.3899 131.555 42.1647C131.483 39.6926 130.266 37.3715 128.772 35.3939C128.354 34.797 127.846 34.2689 127.266 33.8282C126.679 33.3862 125.949 33.1796 125.218 33.2487C124.395 33.3613 123.671 33.9216 122.841 33.9903C121.744 34.0837 120.759 33.3228 119.671 33.2844C119.229 33.2888 118.792 33.3879 118.391 33.575C117.99 33.7621 117.634 34.0329 117.346 34.3693C116.773 35.0457 116.348 35.8344 116.098 36.6849C115.667 37.9755 115.432 39.3236 115.402 40.6841C115.385 41.4505 115.314 42.4064 114.606 42.692C114.623 42.895 114.623 43.0989 114.606 43.3018C115.319 43.0271 115.391 42.0603 115.407 41.2912C115.438 39.9306 115.672 38.5824 116.104 37.2919C116.354 36.4406 116.779 35.651 117.351 34.9736C117.64 34.6381 117.996 34.3681 118.397 34.1815C118.798 33.9949 119.234 33.896 119.676 33.8914C120.773 33.9299 121.76 34.688 122.846 34.5973C123.669 34.5287 124.398 33.9656 125.223 33.8557C125.954 33.7866 126.685 33.9933 127.272 34.4353C127.851 34.8759 128.359 35.4041 128.777 36.0009C130.271 37.9758 131.489 40.2914 131.56 42.7689C131.87 42.9969 132.317 42.7003 132.47 42.3487C132.624 41.9971 132.629 41.5851 132.821 41.25C133.046 40.8627 133.48 40.6567 133.817 40.3655C134.672 39.6266 134.886 38.3824 134.853 37.2534C134.853 37.2177 134.853 37.182 134.853 37.1491C134.801 38.1269 134.541 39.124 133.811 39.7557Z" fill="black"/>
<path opacity="0.1" d="M113.57 39.5608C112.939 38.8658 112.078 38.4016 111.5 37.6655C111.012 37.0138 110.734 36.2294 110.702 35.4159C110.615 36.4325 110.899 37.446 111.5 38.2698C112.078 39.0087 112.939 39.4729 113.57 40.1678C114.175 40.8475 114.539 41.7092 114.604 42.6179C114.646 42.0649 114.576 41.509 114.398 40.9837C114.22 40.4584 113.939 39.9744 113.57 39.5608Z" fill="black"/>
<path opacity="0.1" d="M135.388 31.2682C135.226 31.9412 134.938 32.5812 134.807 33.2596C134.729 33.713 134.7 34.1735 134.722 34.633C134.731 34.3712 134.759 34.1105 134.807 33.8529C134.938 33.1717 135.226 32.5345 135.388 31.8615C135.482 31.4903 135.513 31.1058 135.479 30.7244C135.462 30.9076 135.431 31.0894 135.388 31.2682Z" fill="black"/>
</g>
<path d="M303.657 69H303.451C295.269 69 288.033 73.3371 283.871 79.7371C279.709 73.3371 272.472 69 264.29 69H264.085C257.944 69.0586 252.075 71.5424 247.753 75.9116C243.43 80.2808 241.003 86.1823 241 92.3337C241 99.9725 244.34 110.811 250.852 119.73C263.259 136.724 283.871 151.592 283.871 151.592C283.871 151.592 304.482 136.727 316.887 119.73C323.402 110.811 326.739 99.9725 326.739 92.3337C326.736 86.1828 324.309 80.2817 319.987 75.9126C315.665 71.5434 309.797 69.0593 303.657 69ZM300.715 121.037C299.783 121.034 298.874 120.748 298.107 120.218C297.34 119.687 296.752 118.937 296.418 118.065H291.526C291.204 118.063 290.891 117.961 290.63 117.772C290.369 117.582 290.173 117.316 290.07 117.011L288.568 112.476L283.813 129.118C283.721 129.439 283.527 129.72 283.261 129.921C282.995 130.122 282.671 130.23 282.338 130.231H282.242C281.895 130.214 281.564 130.078 281.304 129.846C281.045 129.614 280.872 129.3 280.816 128.956L275.916 99.4341L272.335 116.904C272.253 117.235 272.063 117.53 271.794 117.741C271.525 117.951 271.193 118.066 270.852 118.065H263.961C263.755 118.074 263.549 118.041 263.355 117.968C263.162 117.895 262.985 117.783 262.836 117.64C262.687 117.496 262.568 117.324 262.487 117.134C262.406 116.943 262.364 116.738 262.364 116.531C262.364 116.324 262.406 116.119 262.487 115.929C262.568 115.738 262.687 115.566 262.836 115.423C262.985 115.28 263.162 115.168 263.355 115.095C263.549 115.022 263.755 114.989 263.961 114.997H269.645L274.718 91.5097C274.801 91.1625 275.003 90.855 275.287 90.6398C275.572 90.4246 275.922 90.3151 276.278 90.33C276.634 90.345 276.974 90.4834 277.24 90.7216C277.506 90.9598 277.68 91.2831 277.734 91.6361L282.738 121.752L286.999 106.861C287.088 106.548 287.276 106.271 287.534 106.073C287.793 105.875 288.108 105.766 288.434 105.763H288.464C288.786 105.763 289.1 105.865 289.361 106.054C289.622 106.244 289.816 106.511 289.917 106.817L292.634 115.006H296.358C296.623 114.2 297.104 113.483 297.75 112.934C298.396 112.386 299.18 112.026 300.017 111.896C300.854 111.766 301.71 111.869 302.492 112.196C303.273 112.522 303.95 113.059 304.446 113.746C304.942 114.433 305.24 115.244 305.305 116.09C305.37 116.936 305.201 117.783 304.816 118.539C304.431 119.294 303.845 119.928 303.122 120.371C302.4 120.814 301.57 121.048 300.723 121.048L300.715 121.037Z" fill="#2D3AAA"/>
<defs>
<linearGradient id="paint0_linear" x1="121.705" y1="192.838" x2="121.705" y2="23.819" gradientUnits="userSpaceOnUse">
<stop stop-color="#808080" stop-opacity="0.25"/>
<stop offset="0.54" stop-color="#808080" stop-opacity="0.12"/>
<stop offset="1" stop-color="#808080" stop-opacity="0.1"/>
</linearGradient>
</defs>
</svg>
