<svg width="205" height="273" viewBox="0 0 205 273" fill="none" xmlns="http://www.w3.org/2000/svg">
<path fill-rule="evenodd" clip-rule="evenodd" d="M102.152 0.290039L0 39.2553V83.139V86.6454V162.057C0 204.217 45.292 234.744 89.5953 264.603C93.7522 267.405 97.9003 270.201 102.002 273C106.103 270.201 110.251 267.405 114.408 264.603C158.711 234.744 204.003 204.217 204.003 162.057V86.6454H204.304V39.2553L102.152 0.290039Z" fill="#3341C0"/>
<path d="M150.241 99.0823C146.933 92.297 126.194 69.5758 102.152 102.472C76.904 69.5758 57.3649 92.297 54.0625 99.0823C48.0492 111.629 51.656 130.624 60.0758 139.781L102.158 187.265L144.24 139.781C152.648 130.624 156.255 111.635 150.242 99.0823H150.241Z" fill="white"/>
</svg>
